<svg version="1.1" viewBox="0 0 3.9688 3.9688" xmlns="http://www.w3.org/2000/svg"><g transform="translate(79.847 7.276)"><path transform="matrix(.26458 0 0 .26458 -79.847 -7.276)" d="m13 0v2.002h1v-2.002h-1zm1 2.002v12.998h1v-12.998h-1zm-1 0h-6c-1.108 0-2 .892-2 2v9c0 1.1013.87981 1.9874 1.9785 1.998h6.0215v-12.998zm-13 0v1h2c.5713 0 1 .4288 1 1v9c0 .5713-.4287 1.0001-1 1h-2v.99805h2.0176c1.0987-.010998 1.9824-.89675 1.9824-1.998v-9c0-1.108-.892-2-2-2h-2zm7.7832 3.709 1.2148 1.8711 1.2168-1.8711.83789.54297-1.1348 1.7461h2.082v1h-2.0801l1.1328 1.7441-.83789.54492-1.2148-1.873-1.2168 1.873-.83789-.54492 1.1328-1.7441h-2.0801v-1h2.082l-1.1348-1.7461.83789-.54297z" fill="#b8cee0"/></g></svg>
