<svg width="20" height="20" version="1.1" viewBox="0 0 20 20" xmlns="http://www.w3.org/2000/svg" xmlns:xlink="http://www.w3.org/1999/xlink"><defs><linearGradient id="b" x1="416.23" x2="416.23" y1="730.45" y2="772.58" gradientTransform="matrix(-1 0 0 -.99994 422.23 759.53)" gradientUnits="userSpaceOnUse"><stop stop-color="#6a7483" offset="0"/><stop stop-color="#304251" offset="1"/></linearGradient><radialGradient id="a" cx="1194.5" cy="412.95" r="13" gradientTransform="matrix(-2.5733e-6 -1.9454 1.0913 0 -432.42 2337.2)" gradientUnits="userSpaceOnUse"><stop stop-color="#fff" offset="0"/><stop stop-color="#fff" stop-opacity="0" offset="1"/></radialGradient></defs><path d="m18 18.998c.57131 0 1-.4288 1-.99996v-15.999c0-.57135-.42871-.99992-1-.99992h-16c-.28573-7.559e-5-.53571.10695-.71422.28571-.17839.17876-.28573.42857-.28573.71421v15.999c0 .28572.10734.5356.28573.71417.17839.17838.42852.28571.71422.28571z" fill="url(#b)" opacity=".5"/><path d="m18 19.999c1.108 0 2-.89195 2-1.9999v-15.999c0-1.1079-.89201-1.9999-2-1.9999h-16c-.554 0-1.054.22298-1.4155.58447-.36132.36168-.58447.86145-.58447 1.4154v15.999c0 .55397.22299 1.0539.58447 1.4154.3617.36168.86151.58447 1.4155.58447zm0-.99992h-16c-.28573 0-.53571-.10733-.71418-.28571-.17877-.17876-.28573-.42857-.28573-.71417v-15.999c0-.28571.10734-.53564.28573-.71421.17839-.17876.42849-.28571.71418-.28571h16c.57128 0 .99999.42857.99999.99992v15.999c0 .57116-.42871.99996-.99999.99996z" fill-opacity=".2" opacity=".5"/><path d="m18 18.999c.57128 0 .99999-.4288.99999-.99996v-15.999c0-.57135-.42871-.99992-.99999-.99992v16.999h-17c0 .28572.10734.53556.28573.71417.17839.17838.42849.28571.71418.28571z" color="#000000" color-rendering="auto" fill="url(#a)" image-rendering="auto" opacity=".05" shape-rendering="auto" solid-color="#000000" style="isolation:auto;mix-blend-mode:normal;text-decoration-color:#000000;text-decoration-line:none;text-decoration-style:solid;text-indent:0;text-transform:none;white-space:normal"/></svg>
