<svg version="1.1" viewBox="0 0 15 15" xmlns="http://www.w3.org/2000/svg"><path d="m3.074 10.942c-.05-.0635-.191-.63795-.3129-1.2766-.2227-1.1672-.3271-1.4831-.4899-1.4831-.1508 0-.2427.1823-.3479.6901-.1222.58954-.1659.68307-.3195.68307-.1414 0-.2502-.2443-.4488-1.0084-.079-.30682-.2115-.6544-.2928-.77241-.1392-.2019-.169-.21598-.5051-.23875l-.3571-.0242.2679-.033c.1473-.0182.3163-.0402.3757-.0489.1643-.0241.364-.41218.518-1.0069.1923-.74268.3018-.98697.4422-.98697.1536 0 .1973.0935.3195.68307.1052.50781.1971.69011.3479.69011.162 0 .2702-.32003.4949-1.4621.2291-1.1648.2987-1.3747.4645-1.4013.1494-.024.2057.0904.3921.79637.096.36199.2151.69515.2654.74036.2008.18035.4426.053.5772-.30401.2576-.6836.4728-.54929.718.44832.2252.91546.3786 1.007.7357.43871.3237-.51542.4225-.4555.7307.44323.1093.31862.2728.66138.3634.76169l.1647.18237h.5375c.6477 0 .6831-.0218.8148-.50149.1367-.49737.1774-.5713.315-.5713.1322 0 .1422.0143.3515.50588.1389.32629.3471.56691.4905.56691.1763 0 .2628-.17693.3587-.73328.2013-1.1684.4593-1.3556.7123-.51689.1466.48549.3485.60403.5765.3383.066-.0767.1828-.42108.2599-.76528.1443-.64395.2606-.87904.4124-.83395.1432.0425.2494.30369.4454 1.095.1023.41302.2285.81371.2804.89041.1763.26083.4031.14609.5724-.28965.2088-.53735.403-.61536.6144-.24674.071.12391.1544.30252.1854.39693.1433.43699.4082.67346.8065.72009.1349.0158.1183.0221-.068.0259-.3431.007-.5458.18505-.729.64044-.199.49482-.3081.65188-.4528.65188-.1371 0-.262-.16743-.3963-.53155-.1336-.36189-.3717-.47659-.5421-.26112-.047.0597-.186.49174-.3084.9602-.2032.77782-.3265 1.0769-.4443 1.0769-.1312 0-.2438-.22733-.3655-.73776-.164-.68827-.2189-.84826-.3244-.94652-.2048-.19059-.4039-.0257-.5722.47374-.1287.38232-.2512.50713-.3909.39849-.099-.0771-.1567-.27865-.2743-.96002-.095-.54818-.1897-.75972-.3418-.75972-.201 0-.3427.17718-.5923.74023-.2359.5323-.4351.42067-.6317-.35402-.091-.36211-.1388-.38621-.7546-.38621-.6641 0-.752.0539-.9529.58479-.5084 1.3431-.5534 1.3756-.9411.68144-.074-.1329-.175-.21937-.2656-.22775-.1729-.016-.2823.20702-.4274.87109-.1216.55664-.1798.70292-.2929.73653-.138.041-.3036-.0924-.3697-.29758-.1017-.31563-.2316-.46041-.4137-.46041-.2139 0-.3123.17297-.4399.77241-.1125.52796-.2553.85824-.3713.85824-.046 0-.1237-.0519-.174-.1154z" fill="#304251"/></svg>
