<svg width="15" height="15" version="1.1" viewBox="0 0 3.9688 3.9688" xmlns="http://www.w3.org/2000/svg"><g transform="translate(-178.69 -104.6)"><path d="m178.69 104.6v.26459h1.5875c.15116 0 .26458.11345.26458.26458v2.9109c0 .15118-.11342.26459-.26458.26459h-1.5875v.26406h1.5921c.15724-.002.29641-.072.39225-.18138.0958.10926.23458.17987.39169.18138h1.5927v-.26406h-1.5875c-.15116 0-.26458-.11341-.26458-.26459v-2.9109c0-.15113.11342-.26458.26458-.26458h1.5875v-.26459h-1.5875c-.1593 0-.30004.0712-.39687.1819-.0969-.1108-.23749-.1819-.39688-.1819zm.26458.52969v2.9104h1.3229v-2.9104zm2.1167 0v2.9104h1.3229v-2.9104zm-1.8862.66145h.35036l.5116.79375-.5116.79375h-.35036l.52089-.79375zm2.6283 0h.35036l-.52091.79375.52091.79375h-.35036l-.5116-.79375z" fill="#304251"/></g></svg>
