<svg width="15" height="15" version="1.1" viewBox="0 0 3.96875 3.96875" xmlns="http://www.w3.org/2000/svg"><path d="m0 0v3.968233h.2645833v-.7906494c.0150193.038596.0296688.083266.0408244.1266071.05255.2022102.0814558.2666506.1188558.2666506.0406 0 .0524494-.024887.0847493-.1808676.0279-.1343901.052084-.1824178.0919841-.1824178.04312 0 .0708078.083404.1297078.3922242.0323.1689798.0694823.3211639.0826823.3379639.0133.0168.033792.030489.045992.030489.0307 0 .0683852-.08717.0981852-.2268596.03379-.1585701.0601887-.2041218.1167887-.2041218.04815 0 .082137.03794.1090373.1214395.0175.0543.061685.089965.098185.079065.0299-.00889.045315-.04754.077515-.1948201.03838-.1756799.066955-.2344769.1126546-.2304769.024.0023.05068.024745.07028.059945.10258.1836798.1145704.1750091.2490804-.1803509.05316-.1404199.076471-.1545124.252181-.1545124.16296 0 .1758878.00652.1999878.1023194.05202.2049999.1045149.2343742.1669149.093534.06601-.1489499.1033796-.1958536.1565796-.1958536.0402 0 .065334.055981.090434.2010214.0311.1802998.046664.2333313.072864.2537312.03692.02875.069253-.00426.1033528-.1054201.04453-.1323398.097212-.1754568.1514121-.1250569.0279.02599.042383.068521.085783.2506308.0322.1351.061935.1948201.096635.1948201.03115 0 .063506-.078937.1173054-.2847371.0324-.1239401.069249-.2384481.081649-.2542482.04513-.057.1082606-.026553.1436605.069246.03555.09634.068603.1405599.1049031.1405599.03831 0 .067189-.041679.1198893-.1725991.04847-.1204503.1019532-.1674987.1927532-.169499.0493-.0009998.053787-.00272.018087-.00672-.1053899-.01234-.1755236-.075066-.2134235-.190686-.0082-.02502-.030293-.072103-.049093-.1049034-.05593-.09751-.1075809-.077057-.1627806.065112-.0448.1152001-.1047121.1459979-.1514121.076998-.0137-.0203-.046797-.1263645-.073897-.2356446-.05184-.20942-.079922-.2787048-.1178224-.2899048-.04012-.01193-.070837.050288-.1090372.2206584-.0204.09107-.051746.1822717-.069246.2025716-.06034.07031-.1136454.03905-.1524455-.0894-.06693-.2219099-.134802-.1727242-.1881021.1364257-.0254.1472102-.048485.1943034-.095085.1943034-.03798 0-.093008-.064078-.1297078-.1503783-.0554-.12984-.058018-.1338419-.093018-.1338419-.0364 0-.046999.019822-.083199.1514118-.03484.1266902-.044637.1328084-.2160074.1328084h-.1421115l-.0434082-.0485728c-.024-.0265401-.0672182-.1172382-.0961182-.2015382-.08154-.23779-.1076699-.2531687-.1932699-.1167886-.09448.1503598-.1352201.125948-.1948201-.1162721-.06487-.26395-.1219693-.2997258-.1901693-.1188558-.03561.0944-.099345.1283152-.1524454.080615-.0133-.01196-.04488-.1000537-.07028-.1958536-.04935-.1868001-.0643696-.2168399-.1038696-.2108399-.0439.00702-.0623899.062847-.1229899.3710368-.05944.30215-.0878414.3865397-.1307414.3865397-.04 0-.0641841-.048058-.0919841-.1824178-.0323-.15602-.0441494-.1808675-.0847493-.1808675-.0372 0-.0658887.064466-.1167887.2609659-.0129015.049817-.0282518.082831-.0428914.120406v-2.862357zm.5291667 0 .5208984.79375-.5208984.79375h.3503662l.5115966-.79375-.5115966-.79375z" fill="#304251"/></svg>
