<svg version="1.1" viewBox="0 0 3.9688 3.9688" xmlns="http://www.w3.org/2000/svg"><g transform="translate(79.847 7.276)"><path d="m-77.731-7.276v.52865h.26458v-.52865zm-1.5875.52968c-.29316 0-.52917.23601-.52917.52917v2.3812c0 .29139.23278.52585.52348.52865h1.5932v-3.4391zm1.8521 0v3.4391h1.5875v-1.7193l-1.3229.66146v-1.3229l1.3229.66146v-1.7198zm-1.6443.98185.32143.49506.32194-.49506.22169.14366-.30024.46199h.55087v.26458h-.55035l.29972.46147-.22169.14418-.32143-.49558-.32194.49558-.22169-.14418.29972-.46147h-.55035v-.26458h.55087l-.30024-.46199z" fill="#b8cee0"/></g></svg>
