<svg width="20" height="20" version="1.1" viewBox="0 0 20 20" xmlns="http://www.w3.org/2000/svg">
 <g transform="matrix(5.0393 0 0 5.0393 402.38 36.666)">
  <path d="m-77.731-7.276v0.52865h0.26458v-0.52865zm-1.5875 0.52968c-0.29316 0-0.52917 0.23601-0.52917 0.52917v2.3812c0 0.29139 0.23278 0.52585 0.52348 0.52865h1.5932v-3.4391zm1.8521 0v3.4391h1.5875v-1.7193l-1.3229 0.66146v-1.3229l1.3229 0.66146v-1.7198zm-1.6443 0.98185 0.32143 0.49506 0.32194-0.49506 0.22169 0.14366-0.30024 0.46199h0.55087v0.26458h-0.55035l0.29972 0.46147-0.22169 0.14418-0.32143-0.49558-0.32194 0.49558-0.22169-0.14418 0.29972-0.46147h-0.55035v-0.26458h0.55087l-0.30024-0.46199z" fill="#b8cee0"/>
 </g>
</svg>
