<svg width="20" height="20" version="1.1" viewBox="0 0 20 20" xmlns="http://www.w3.org/2000/svg">
 <path d="m7 2.5e-4a4 4 0 0 0-4 4 4 4 0 0 0 4 4 4 4 0 0 0 4-4 4 4 0 0 0-4-4zm-0.5 1h1v2.5h2.5v1h-2.5v2.5h-1v-2.5h-2.5v-1h2.5zm-4.5 3c-1.108 0-2 0.892-2 2v12c0 1.108 0.892 2 2 2h16c1.108 0 2-0.892 2-2v-12c0-1.108-0.892-2-2-2h-6a5 5 0 0 1-5 5 5 5 0 0 1-5-5z" color="#000000" color-rendering="auto" fill="#b8cee0" image-rendering="auto" shape-rendering="auto" solid-color="#000000" style="isolation:auto;mix-blend-mode:normal;text-decoration-color:#000000;text-decoration-line:none;text-decoration-style:solid;text-indent:0;text-transform:none;white-space:normal"/>
 <path d="m7 2.5e-4a4 4 0 0 0-4 4 4 4 0 0 0 0.1 0.5 4 4 0 0 1 3.4004-3.4004v-0.1h1v0.035a4 4 0 0 1 3.4356 3.2891 4 4 0 0 0 0.064-0.3242 4 4 0 0 0-4-4zm-5 4c-1.108 0-2 0.892-2 2v1c0-1.108 0.892-2 2-2a5 5 0 0 0 5 5 5 5 0 0 0 5-5h6c1.108 0 2 0.892 2 2v-1c0-1.108-0.892-2-2-2h-6a5 5 0 0 1-3.4687 4.6953 4 4 0 0 1-1.5313 0.3047 4 4 0 0 1-1.5312-0.3047 5 5 0 0 1-3.4688-4.6953zm2 0.5v1h2.5v-1zm3.5 0v1h2.5v-1zm-1 2.5v0.9004a4 4 0 0 0 0.5 0.1 4 4 0 0 0 0.5-0.1v-0.9004z" color="#000000" color-rendering="auto" fill-opacity=".2" image-rendering="auto" shape-rendering="auto" solid-color="#000000" style="isolation:auto;mix-blend-mode:normal;text-decoration-color:#000000;text-decoration-line:none;text-decoration-style:solid;text-indent:0;text-transform:none;white-space:normal"/>
</svg>
