<svg width="20" height="20" version="1.1" viewBox="0 0 20 20" xmlns="http://www.w3.org/2000/svg">
 <path d="m17.333 1.264e-7v2.6693h1.3333v-2.6693zm1.3333 2.6693v17.331h1.3333v-17.331zm-1.3333 0h-8c-1.4773 0-2.6667 1.1893-2.6667 2.6667v12c0 1.4684 1.1731 2.6499 2.638 2.664h8.0287zm-17.333 0v1.3333h2.6667c0.76173 0 1.3333 0.57173 1.3333 1.3333v12c0 0.76173-0.5716 1.3335-1.3333 1.3333h-2.6667v1.3307h2.6901c1.4649-0.01466 2.6432-1.1957 2.6432-2.664v-12c0-1.4773-1.1893-2.6667-2.6667-2.6667h-2.6667zm10.378 4.9453 1.6197 2.4948 1.6224-2.4948 1.1172 0.72396-1.5131 2.3281h2.776v1.3333h-2.7735l1.5104 2.3255-1.1172 0.72656-1.6197-2.4973-1.6224 2.4973-1.1172-0.72656 1.5104-2.3255h-2.7735v-1.3333h2.776l-1.5131-2.3281 1.1172-0.72396z" fill="#b8cee0" stroke-width="1.3333"/>
</svg>
