<svg width="24" height="20" version="1.1" viewBox="0 0 24 20" xmlns="http://www.w3.org/2000/svg"><path d="m13 1a1.0001 1.0001 0 0 0-0.89453 0.55273l-8 16a1.0001 1.0001 0 0 0 0.89453 1.4473h16a1.0001 1.0001 0 0 0 0.89453-1.4473l-8-16a1.0001 1.0001 0 0 0-0.89453-0.55273zm0 3.2363 6.3828 12.764h-12.766l6.3828-12.764zm0 2.7773a1.0001 1.0001 0 0 0-1 0.98633v4a1.0001 1.0001 0 0 0 2 0v-4a1.0001 1.0001 0 0 0-1-0.98633zm0 6.9863a1 1 0 0 0-1 1 1 1 0 0 0 0.29297 0.70703 1 1 0 0 0 0.70703 0.29297 1 1 0 0 0 1-1 1 1 0 0 0-0.29297-0.70703 1 1 0 0 0-0.32422-0.2168 1 1 0 0 0-0.38281-0.076172z" color="#000000" fill="#fff" fill-opacity=".4" opacity=".5" stroke-linecap="round" stroke-linejoin="round" style="-inkscape-stroke:none"/></svg>
