<svg width="68.262mm" height="68.262mm" version="1.1" viewBox="0 0 258 258" xmlns="http://www.w3.org/2000/svg">
 <g transform="translate(-2e-6 -2.2389e-5)">
  <g transform="matrix(1 0 0 1 -510 -2543.1)" shape-rendering="auto">
   <path transform="translate(0,360)" d="m559.34 2185.1c-0.43018 0-0.86029 0-1.291 0.021-14.811 0.6213-24.459 13.064-23.896 25.928 0.46115-12.137 9.8753-23.365 23.941-23.932 0.4156-0.017 0.83109-0.022 1.2461-0.018 2.9053 0.03 5.7865 0.5674 8.5117 1.5937 70.852 26.679 131.88 61.476 188.38 104.65 6.2344 4.7664 9.4858 11.712 9.7676 18.756 0.30845-7.7104-2.943-15.538-9.7676-20.756-56.504-43.172-117.53-77.97-188.38-104.65-2.724-1.0258-5.6038-1.5633-8.5078-1.5937h-4e-3zm-27.131 26.059c-0.2187 6.1828 1.6983 12.564 6.2656 18.031 0 0 15.422 18.478 30.656 39.682 7.6171 10.602 15.137 21.879 20.291 31.066 2.047 3.8541 3.8942 7.6586 5.5625 11.414 0.0254-0.069 0.0656-0.1853 0.0898-0.25 0.0918-0.2892 0.19543-0.5596 0.29883-0.83 0.3763 0.8627 0.74231 1.7221 1.0996 2.58l-0.36718 1.084c4.3927 10.347 7.3903 20.29 9.2207 29.742 0.0699-0.018 0.13684-0.042 0.20703-0.059a2.0002 2.0002 0 0 1 0.1543-0.029c-2.5293-14.183-7.6883-29.503-16.266-45.652-5.154-9.1878-12.674-20.464-20.291-31.066-15.234-21.204-30.656-39.682-30.656-39.682-4.0761-4.8791-6.0437-10.487-6.2656-16.031zm235.76 100.94c-0.281 7.6462-3.7819 15.193-10.521 20.346-56.644 43.28-117.86 78.186-188.89 104.93-2.8705 1.0794-5.834 1.6365-8.7734 1.7109-0.68195 0.017-1.3611 0.01-2.0391-0.027-8.0269-0.4083-15.677-4.4091-20.553-11.277-1.7611-2.4806-3.0383-5.1809-3.8574-7.9804-6.2951-2.5219-10.833-8.4887-11.275-15.57-0.0137 0.288-0.0449 0.5718-0.0449 0.8632 0 7.575 4.6914 14.048 11.32 16.703 0.81915 2.7995 2.0963 5.4998 3.8574 7.9804 7.0634 9.949 19.945 13.888 31.365 9.5938 71.034-26.748 132.25-61.654 188.89-104.93 7.3261-5.601 10.827-14.03 10.521-22.342zm-171.87 1.8633-0.66016 1.9453c-0.9824 2.6225-2.2552 5.7431-4.2695 9.334-3.2469 5.7882-7.4211 12.367-11.936 19.068 0.35045 0.1347 0.69168 0.286 1.0312 0.4414 4.1109-6.1582 7.9102-12.176 10.904-17.514 2.0143-3.5909 3.2871-6.7115 4.2695-9.334l1.0371-3.0567c-0.12252-0.2941-0.25232-0.5901-0.37695-0.8847zm-68.1 31.135c-0.55909 0-1.1101 0.034-1.6562 0.084-8.0798 0.8237-14.344 7.6116-14.344 15.916 0 0.3377 0.0304 0.6677 0.0508 1 0.51548-8.3919 7.4233-15 15.949-15h44.793c1.122 0 2.2158 0.1163 3.2715 0.334 0.38801 0.08 0.76556 0.1856 1.1426 0.293 0.29846 0.089 0.59409 0.1829 0.88672 0.2851 5.9018 2.0626 10.208 7.4613 10.656 13.965 0.0157-0.2921 0.043-0.5809 0.043-0.877 0-7.0011-4.4602-12.908-10.699-15.088-0.29263-0.1022-0.58826-0.1961-0.88672-0.2851-0.37702-0.1074-0.75457-0.213-1.1426-0.293-0.49583-0.1022-1.0021-0.1764-1.5137-0.2324-0.0677-0.01-0.13517-0.015-0.20312-0.022-0.51196-0.05-1.0293-0.08-1.5547-0.08zm78.006 0.4649c-7.021 1.6948-12.213 7.9792-12.213 15.535 0 0.3341 0.023 0.6615 0.043 0.9903 0.44033-7.0996 5.4653-12.907 12.17-14.525 0.439 2.6688 0.78207 5.2956 1.0449 7.8847 0.0232 0.2381 0.0486 0.4776 0.0703 0.7149 0.0528 0.5518 0.0897 1.0965 0.13477 1.6445 0.20456 2.6408 0.31314 5.2331 0.33984 7.7774 0.0233-3.182-0.0813-6.4403-0.33984-9.7774-0.0451-0.548-0.082-1.0927-0.13477-1.6445-0.0217-0.2373-0.0471-0.4768-0.0703-0.7149-0.26285-2.5891-0.60592-5.2159-1.0449-7.8847zm-15.256 16.396c-0.45089 9.537-8.3092 17.142-17.957 17.142h-19.012c-2.2915 2.9355-4.3054 5.4782-6.1094 7.7286 0.38107 0.1797 0.75514 0.373 1.1211 0.5781 1.5377-1.9279 3.1172-3.9137 4.9883-6.3106h19.012c9.9372 0 18-8.0624 18-18 0-0.383-0.0193-0.7616-0.043-1.1386zm1.0879 0.1211c-0.0189 0.3379-0.0449 0.6748-0.0449 1.0175 0 8.778 6.2831 16.068 14.611 17.65 0.0991-0.6444 0.20419-1.2838 0.29101-1.9375-8.1582-1.4097-14.402-8.2951-14.857-16.73zm-81.787 0.02c-0.0183 0.3323-0.0508 0.6611-0.0508 0.998 0 9.9376 8.063 18 18 18h21.666c0.55389-0.7018 0.98817-1.2385 1.582-1.9961h-23.248c-9.6002 0-17.428-7.5309-17.949-17.002zm99.602 5.2012c-0.0435 3.3386-0.22243 6.5979-0.54296 9.7597a2.0002 2.0002 0 0 1-0.22266 0.7285c-0.3552 2.9847-0.83376 5.881-1.418 8.6934a2.0002 2.0002 0 0 1 0.0586 1.0156c-2.6524 13.022-7.5652 24.126-13.713 32.76a2.0002 2.0002 0 0 1-1.625 0.8398c-2.0399 2.6728-4.192 5.1123-6.4316 7.2891 1.0481-0.4251 2.0889-0.8563 3.1328-1.2852 1.1278-1.269 2.2292-2.6023 3.2988-4.0039a2.0002 2.0002 0 0 0 1.625-0.8398c6.1477-8.6339 11.06-19.738 13.713-32.76a2.0002 2.0002 0 0 0-0.0586-1.0156c0.58421-2.8124 1.0628-5.7087 1.418-8.6934a2.0002 2.0002 0 0 0 0.22266-0.7285c0.38407-3.7885 0.55639-7.7214 0.54296-11.76zm-69.637 19.797c-0.55909 0-1.1101 0.034-1.6562 0.084-8.08 0.8237-14.344 7.6115-14.344 15.916 0 0.3929 0.0134 0.7825 0.041 1.168 0.43276-8.4717 7.376-15.168 15.959-15.168 1.5232 0 2.9891 0.2252 4.3828 0.6192 0.29212 0.082 0.57958 0.1767 0.86523 0.2734 0.15339 0.053 0.30583 0.1086 0.45703 0.166 0.22693 0.085 0.45447 0.1678 0.67578 0.2637h2e-3c5.3344 2.3119 9.1436 7.4341 9.5742 13.523 0.0146-0.2818 0.043-0.5601 0.043-0.8457 0-6.5915-3.9488-12.221-9.6172-14.678h-2e-3c-0.22131-0.096-0.44885-0.1787-0.67578-0.2637-0.1512-0.057-0.30364-0.113-0.45703-0.166-0.28565-0.097-0.57311-0.1914-0.86523-0.2734-1.0146-0.2869-2.0689-0.4822-3.1543-0.5684-0.40658-0.028-0.81453-0.051-1.2285-0.051zm37 0c-0.5591 0-1.1101 0.034-1.6562 0.084-8.0801 0.8237-14.344 7.6115-14.344 15.916 0 0.3377 0.0304 0.6677 0.0508 1 0.51545-8.3921 7.4229-15 15.949-15h27.75c0.16073-0.6623 0.31859-1.3267 0.4668-2zm-19.043 16.838c-0.43908 9.5478-8.3012 17.166-17.957 17.166-0.43901 0-0.87246-0.023-1.3027-0.057-1.0366-0.08-2.0486-0.2467-3.0312-0.4902 0.26255 0.7438 0.57477 1.4726 0.91016 2.1953 1.1088 0.2197 2.2506 0.3476 3.4238 0.3476 9.9374 0 18-8.0626 18-18 0-0.3906-0.0184-0.7777-0.043-1.1621zm1.0938 0.1641c-0.0183 0.3324-0.0508 0.6611-0.0508 0.998 0 9.9374 8.0626 18 18 18h10.9c0.5623-0.6513 1.1222-1.3084 1.6699-1.9961h-12.57c-9.6005 0-17.428-7.5311-17.949-17.002z" color="#000000" color-rendering="auto" dominant-baseline="auto" fill="#fff" image-rendering="auto" opacity=".05" solid-color="#000000" style="font-feature-settings:normal;font-variant-alternates:normal;font-variant-caps:normal;font-variant-ligatures:normal;font-variant-numeric:normal;font-variant-position:normal;isolation:auto;mix-blend-mode:normal;paint-order:fill markers stroke;shape-padding:0;text-decoration-color:#000000;text-decoration-line:none;text-decoration-style:solid;text-indent:0;text-orientation:mixed;text-transform:none;white-space:normal"/>
   <path d="m559.36 2543.1c-0.4484 0-0.8967 0-1.3457 0.021-22.274 0.8972-33.831 26.961-19.539 44.068 0 0 15.422 18.478 30.656 39.682 7.6171 10.602 15.137 21.879 20.291 31.066 8.5773 16.15 13.736 31.469 16.266 45.652a2.0002 2.0002 0 0 0-0.1543 0.029c-7.8986 1.9067-13.744 9.0065-13.744 17.478 0 8.8811 6.4281 16.249 14.902 17.713-0.28496 2.1453-0.63815 4.2399-1.0449 6.291a2.0002 2.0002 0 0 0-0.082 0h-28.553c-9.9374 0-18 8.0626-18 18s8.0626 18 18 18h12.57c-2.6672 3.3483-5.5158 6.2684-8.4609 8.7364-2.496 1.1524-4.8115 2.2347-7.6699 3.5312-1.8636 0.7185-3.7272 1.4337-5.5996 2.1387-10.58 3.9783-22.488 0.3354-29.031-8.8809-1.3529-1.9056-2.3941-3.9516-3.1426-6.0722 1.3905 0.3446 2.8373 0.5468 4.334 0.5468 9.9374 0 18-8.0626 18-18 0-7.1957-4.2381-13.391-10.344-16.271 1.804-2.2504 3.8179-4.7931 6.1094-7.7286h19.012c9.9372 0 18-8.0624 18-18 0-7.6643-4.8052-14.196-11.559-16.791 4.5145-6.7012 8.6886-13.28 11.936-19.068 2.0143-3.5909 3.2871-6.7115 4.2695-9.334l1.0371-3.0567c-0.3573-0.8579-0.72331-1.7173-1.0996-2.58-0.1034 0.2704-0.20701 0.5408-0.29883 0.83-0.87229 2.3233-2.5001 7.5389-5.6543 13.162-3.2853 5.8566-7.5581 12.575-12.18 19.416-1.4262-0.3639-2.9121-0.5782-4.4512-0.5782h-44.793c-9.9371 0-18 8.0627-18 18 0 9.9376 8.063 18 18 18h23.248c-2.0668 2.6364-3.883 4.9232-5.5078 6.9453-1.8004-0.6047-3.7211-0.9453-5.7246-0.9453-9.9373 0-18 8.0626-18 18 0 7.575 4.6914 14.048 11.32 16.703 0.81915 2.7995 2.0963 5.4998 3.8574 7.9804 7.0634 9.949 19.945 13.888 31.365 9.5938 0.50525-0.1884 1.0118-0.3915 1.5176-0.6074-0.50604 0.2158-1.0121 0.4189-1.5176 0.6074 71.034-26.748 132.25-61.654 188.89-104.93 14.066-10.754 14.066-31.934 0-42.688-56.644-43.279-117.86-78.184-188.89-104.93-2.9443-1.1089-6.0564-1.6906-9.1953-1.7226zm-0.0195 2c2.9053 0.03 5.7865 0.5674 8.5117 1.5937 70.852 26.679 131.88 61.476 188.38 104.65 13.059 9.9841 13.059 29.528 0 39.512-51.663 39.474-107.2 71.866-170.48 97.533 2.2396-2.1768 4.3918-4.6163 6.4316-7.2891a2.0002 2.0002 0 0 0 1.625-0.8398c6.1477-8.6339 11.06-19.738 13.713-32.76a2.0002 2.0002 0 0 0-0.0586-1.0156c0.58421-2.8124 1.0628-5.7087 1.418-8.6934a2.0002 2.0002 0 0 0 0.22266-0.7285c0.43586-4.2994 0.61489-8.7759 0.53906-13.393-5.3e-4 -0.05-1e-3 -0.1003-2e-3 -0.1503-0.0186-1.0546-0.0504-2.1156-0.0977-3.1856-0.0328-0.8391-0.0755-1.6824-0.12695-2.5312-6e-3 -0.087-0.0117-0.1747-0.0176-0.2618-1.1443-18.228-6.5935-38.664-18.213-60.541a2.0002 2.0002 0 0 0-0.0215-0.039c-5.2185-9.3028-12.767-20.615-20.412-31.256-15.286-21.276-30.744-39.795-30.744-39.795-13.311-15.933-2.6607-39.955 18.084-40.791 0.4156-0.017 0.83109-0.022 1.2461-0.018zm-31.344 160h44.793c1.122 0 2.2158 0.1163 3.2715 0.334 0.38801 0.08 0.76556 0.1856 1.1426 0.293 0.29846 0.089 0.59409 0.1829 0.88672 0.2851 6.239 2.1804 10.699 8.0868 10.699 15.088 0 8.8641-7.1362 16-16 16h-44.793c-8.8636 0-16-7.1359-16-16 0-8.8638 7.1364-16 16-16zm78.006 0.4649c0.439 2.6688 0.78207 5.2956 1.0449 7.8847 0.0232 0.2381 0.0486 0.4776 0.0703 0.7149 0.0528 0.5518 0.0897 1.0965 0.13477 1.6445 0.57244 7.3899 0.42785 14.412-0.31836 21.012-7.4881-1.3422-13.145-7.8347-13.145-15.721 0-7.5559 5.1919-13.84 12.213-15.535zm-65.99 41.535c1.5232 0 2.9891 0.2252 4.3828 0.6192 0.29212 0.082 0.57958 0.1767 0.86523 0.2734 0.15339 0.053 0.30583 0.1086 0.45703 0.166 0.22693 0.085 0.45447 0.1678 0.67578 0.2637 5.6e-4 2e-4 1e-3 -2e-4 2e-3 0 5.6684 2.4566 9.6172 8.0862 9.6172 14.678 0 8.8639-7.136 16-16 16-1.7552 0-3.4379-0.289-5.0156-0.8066-0.028-0.01-0.0541-0.022-0.082-0.031-0.71016-0.2375-1.3954-0.5252-2.0566-0.8554-5.2486-2.6193-8.8457-8.0209-8.8457-14.307 0-8.864 7.1361-16 16-16zm37 0h28.217c-2.8091 12.759-7.8955 23.578-14.117 32h-14.1c-8.864 0-16-7.1361-16-16 0-8.864 7.136-16 16-16zm4.0625 42.775c-0.49243 0.4117-0.98691 0.8132-1.4844 1.1992-1.0305 0.7997-2.0702 1.5451-3.1172 2.2325-0.49769 0.3267-0.99583 0.6385-1.4961 0.9394 0.49995-0.301 0.99871-0.6126 1.4961-0.9394 1.0466-0.6878 2.087-1.4328 3.1172-2.2325 0.4977-0.3863 0.9917-0.7873 1.4844-1.1992zm-6.3301 4.5078c-0.41587 0.2467-0.83291 0.4843-1.25 0.7129 0.4171-0.2288 0.83411-0.4659 1.25-0.7129zm-1.6367 0.9219c-0.35258 0.1884-0.70552 0.3696-1.0586 0.5449 0.35313-0.1755 0.70598-0.3563 1.0586-0.5449zm-1.5664 0.7949c-0.37393 0.179-0.74704 0.3495-1.1211 0.5137 0.37388-0.1642 0.74733-0.3346 1.1211-0.5137z" color="#000000" color-rendering="auto" dominant-baseline="auto" image-rendering="auto" opacity=".1" solid-color="#000000" style="font-feature-settings:normal;font-variant-alternates:normal;font-variant-caps:normal;font-variant-ligatures:normal;font-variant-numeric:normal;font-variant-position:normal;isolation:auto;mix-blend-mode:normal;paint-order:fill markers stroke;shape-padding:0;text-decoration-color:#000000;text-decoration-line:none;text-decoration-style:solid;text-indent:0;text-orientation:mixed;text-transform:none;white-space:normal"/>
  </g>
 </g>
</svg>
