<svg width="24" height="20" version="1.1" viewBox="0 0 24 20" xmlns="http://www.w3.org/2000/svg"><path d="m8 5.5c-1.1045 0-2 0.89547-2 2 0 1.1045 0.89547 2 2 2h1v-4h-1zm2 0v4h3v-4h-3zm4 0v4h4v-4h-4zm5 0v4h1c1.1045 0 2-0.89547 2-2 0-1.1045-0.89547-2-2-2h-1zm-13 5c-1.1045 0-2 0.89547-2 2s0.89547 2 2 2h1v-4h-1zm2 0v4h3v-4h-3zm4 0v4h1c1.1045 0 2-0.89547 2-2s-0.89547-2-2-2h-1zm6 0c-1.1045 0-2 0.89547-2 2s0.89547 2 2 2h1.5v-4h-1.5zm2.5 0v4h1.5c1.1045 0 2-0.89547 2-2s-0.89547-2-2-2h-1.5z" fill="#fff" fill-opacity=".4" style="isolation:auto;mix-blend-mode:normal;text-decoration-color:#000000;text-decoration-line:none;text-decoration-style:solid;text-indent:0;text-transform:none;white-space:normal"/></svg>
