<svg width="24" height="20" version="1.1" viewBox="0 0 24 20" xmlns="http://www.w3.org/2000/svg"><path d="m11 3c-3.866 0-7 3.134-7 7s3.134 7 7 7c2.5903 0 4.85-1.4087 6.0605-3.5h-2.4922c-0.90737 0.92495-2.1703 1.5-3.5684 1.5-2.7614 0-5-2.2386-5-5s2.2386-5 5-5c1.3981 0 2.661 0.57505 3.5684 1.5h2.4922c-1.2106-2.0913-3.4703-3.5-6.0605-3.5zm-1 2.7891v3.4219l-1.9629 1.1348 1 1.7324 2.9629-1.7109v-4.5781h-2zm6.5371 1.7109c-0.5776 0-1.0304 0.12995-1.3613 0.38867-0.33092 0.25872-0.49805 0.61139-0.49805 1.0566 0 0.22864 0.03342 0.42347 0.09961 0.58594 0.06618 0.16245 0.16091 0.30349 0.28125 0.42383 0.12033 0.11432 0.26317 0.21459 0.43164 0.29883 0.17449 0.08423 0.36756 0.16397 0.57812 0.24219 0.27076 0.10228 0.47309 0.19702 0.60547 0.28125 0.13237 0.07822 0.19727 0.171 0.19727 0.2793 0 0.13839-0.050055 0.23116-0.15234 0.2793-0.10228 0.048129-0.27673 0.072265-0.52344 0.072265-0.23465 0-0.47221-0.024126-0.71289-0.072265-0.24067-0.05415-0.47644-0.12655-0.70508-0.2168l-0.22461 1.0918c0.1083 0.048129 0.30138 0.10748 0.57812 0.17969 0.28279 0.0722 0.63354 0.10938 1.0547 0.10938 0.6438 0 1.1413-0.12066 1.4902-0.36133 0.35499-0.24067 0.53125-0.59516 0.53125-1.0645 0-0.19855-0.024125-0.373-0.072265-0.52344-0.04211-0.15042-0.12006-0.28592-0.23438-0.40625-0.1083-0.12636-0.25864-0.23951-0.45117-0.3418-0.19254-0.1083-0.43564-0.21787-0.73047-0.32617-0.1444-0.05415-0.26506-0.10242-0.36133-0.14453-0.090249-0.048133-0.16265-0.088901-0.2168-0.125-0.05415-0.042117-0.089373-0.084834-0.10742-0.12695-0.01805-0.042117-0.027344-0.090382-0.027344-0.14453 0-0.23465 0.20967-0.35156 0.63086-0.35156 0.22864 0 0.43276 0.020383 0.61328 0.0625 0.18652 0.042117 0.35919 0.090382 0.51562 0.14453l0.23438-1.0469c-0.15644-0.060171-0.36613-0.11593-0.63086-0.16406-0.26474-0.054149-0.54323-0.080078-0.83203-0.080078z" fill="#fff" fill-opacity=".4"/></svg>
