<svg width="12" height="12" version="1.1" viewBox="0 0 12 12" xmlns="http://www.w3.org/2000/svg"><path d="m3.2232 1.9334c-0.27726 0.57763-0.54291 1.163-0.79707 1.756-0.25416 0.58534-0.51264 1.2016-0.7745 1.8485-0.25416 0.64695-0.51566 1.3322-0.78522 2.0561-0.26956 0.71626-0.55838 1.4977-0.86645 2.3449h1.1665l0.72825-2.0448h3.6271c0.12323 0.34658 0.24267 0.68947 0.3582 1.0283 0.11553 0.33118 0.23855 0.66992 0.36948 1.0165h1.2247c-0.30807-0.8472-0.59689-1.6287-0.86645-2.3449-0.26956-0.72397-0.53521-1.4092-0.79707-2.0561-0.25416-0.64695-0.50793-1.2632-0.76209-1.8485-0.25416-0.59304-0.52037-1.1784-0.79763-1.756zm0.48512 1.2822c0.26186 0.57763 0.51206 1.182 0.75081 1.8136 0.24646 0.62384 0.49307 1.271 0.73953 1.9411h-2.9807c0.23876-0.67006 0.47765-1.3172 0.7164-1.9411 0.24646-0.63155 0.50438-1.2359 0.77394-1.8136zm5.9811 0.56635c-0.37739 0-0.728 0.03033-1.0515 0.09195-0.32347 0.05391-0.55464 0.11213-0.69327 0.17374l0.12692 0.88958c0.13093-0.05391 0.32762-0.1044 0.58948-0.15061 0.26956-0.05391 0.58155-0.08066 0.93583-0.08066 0.27726 0 0.50071 0.0422 0.67014 0.12692 0.17714 0.07702 0.31562 0.18516 0.41574 0.32379 0.10012 0.13093 0.16908 0.28485 0.20759 0.46199 0.03851 0.16944 0.0581 0.34239 0.0581 0.51953v0.30066c-0.03081-0.0077-0.08488-0.01901-0.1619-0.03441-0.07702-0.0154-0.16915-0.03085-0.27697-0.04626-0.10012-0.02311-0.20826-0.03855-0.32379-0.04626-0.11553-0.0154-0.22725-0.02313-0.33507-0.02313-0.33888 0-0.66217 0.03448-0.97024 0.10379-0.30807 0.06932-0.57786 0.17689-0.80891 0.32323-0.23105 0.14633-0.41587 0.33888-0.55451 0.57763-0.13093 0.23876-0.19631 0.52399-0.19631 0.85517 0 0.34658 0.057651 0.64312 0.17318 0.88958 0.11553 0.24646 0.27717 0.44673 0.48512 0.60076 0.20795 0.14633 0.45456 0.25391 0.73953 0.32323 0.28497 0.06932 0.59696 0.10436 0.93583 0.10436 0.23876 0 0.47765-0.01187 0.7164-0.03497 0.24646-0.0154 0.47348-0.03443 0.68143-0.05754 0.20795-0.0231 0.39277-0.04628 0.55451-0.06938 0.16944-0.03081 0.30075-0.05398 0.39317-0.06938v-3.7546c0-0.33888-0.03862-0.64672-0.11564-0.92399-0.07702-0.28497-0.20833-0.528-0.39317-0.72825-0.17714-0.20795-0.41547-0.36545-0.71584-0.47328-0.29267-0.11553-0.65458-0.17318-1.0859-0.17318zm0.25384 3.3733c0.24646 0 0.45445 0.01545 0.62389 0.04626 0.17714 0.02311 0.30431 0.05344 0.38133 0.09195v1.791c-0.13093 0.03081-0.29672 0.05398-0.49697 0.06938-0.19254 0.0077-0.41599 0.01128-0.67015 0.01128-0.4236 0-0.7582-0.0731-1.0047-0.21943-0.24646-0.15404-0.37005-0.42326-0.37005-0.80835 0-0.20795 0.049926-0.37374 0.15005-0.49697 0.10012-0.13093 0.22371-0.23135 0.37005-0.30066 0.15404-0.07702 0.31926-0.12694 0.4964-0.15005 0.18484-0.0231 0.35836-0.03441 0.5201-0.03441z" fill="#fff"/></svg>
