<svg width="20" height="20" version="1.1" viewBox="0 0 20 20" xmlns="http://www.w3.org/2000/svg">
 <path d="m4 0v20h1v-20h-1zm-4 4v16h1c1.108 0 2-0.892 2-2v-12c0-1.108-0.892-2-2-2h-1zm17 0c-1.108 0-2 0.892-2 2v12c0 1.108 0.892 2 2 2h3v-16h-3zm-7 4c-2.2091 0-4 1.7909-4 4s1.7909 4 4 4 4-1.7909 4-4-1.7909-4-4-4zm-0.5 1h1v2.5h2.5v1h-2.5v2.5h-1v-2.5h-2.5v-1h2.5v-2.5z" color="#000000" color-rendering="auto" fill="#b8cee0" image-rendering="auto" shape-rendering="auto" solid-color="#000000" style="isolation:auto;mix-blend-mode:normal;text-decoration-color:#000000;text-decoration-line:none;text-decoration-style:solid;text-indent:0;text-transform:none;white-space:normal"/>
 <path d="m4 0v1h1v-1h-1zm-4 4v1h1c1.108 0 2 0.892 2 2v-1c0-1.108-0.892-2-2-2h-1zm17 0c-1.108 0-2 0.892-2 2v1c0-1.108 0.892-2 2-2h3v-1h-3zm-7 4c-2.2091 0-4 1.7909-4 4 0.0227 0.16862 0.055709 0.33563 0.099609 0.5 0.24955-1.7643 1.6361-3.1508 3.4004-3.4004v-0.099609h0.5 0.5v0.035156c1.7434 0.22251 3.1373 1.557 3.4355 3.2891 0.0258-0.10714 0.047553-0.21532 0.064453-0.32422 0-2.2091-1.7909-4-4-4zm-3 4.5v1h2.5v-1h-2.5zm3.5 0v1h2.5v-1h-2.5zm-1 2.5v0.90039c0.16437 0.0439 0.33138 0.076909 0.5 0.099609 0.16862-0.0227 0.33563-0.055709 0.5-0.099609v-0.90039h-1z" color="#000000" color-rendering="auto" fill-opacity=".2" image-rendering="auto" shape-rendering="auto" solid-color="#000000" style="isolation:auto;mix-blend-mode:normal;text-decoration-color:#000000;text-decoration-line:none;text-decoration-style:solid;text-indent:0;text-transform:none;white-space:normal"/>
</svg>
