<svg width="20" height="20" version="1.1" viewBox="0 0 20 20" xmlns="http://www.w3.org/2000/svg">
 <path d="m4 0v20h1v-20h-1zm-4 4v16h1c1.108 0 2-0.892 2-2v-12c0-1.108-0.892-2-2-2h-1zm17 0c-1.108 0-2 0.892-2 2v12c0 1.108 0.892 2 2 2h3v-16h-3zm-7 4c-2.2091 0-4 1.7909-4 4s1.7909 4 4 4 4-1.7909 4-4-1.7909-4-4-4zm-3 3.5h6v1h-6v-1z" color="#000000" color-rendering="auto" fill="#b8cee0" image-rendering="auto" shape-rendering="auto" solid-color="#000000" style="isolation:auto;mix-blend-mode:normal;text-decoration-color:#000000;text-decoration-line:none;text-decoration-style:solid;text-indent:0;text-transform:none;white-space:normal"/>
 <path d="m4 0v1h1v-1h-1zm-4 4v1h1c1.108 0 2 0.892 2 2v-1c0-1.108-0.892-2-2-2h-1zm17 0c-1.108 0-2 0.892-2 2v1c0-1.108 0.892-2 2-2h3v-1h-3zm-7 4c-2.2091 0-4 1.7909-4 4 0 0.1712 0.029781 0.3345 0.050781 0.5 0.2484-1.9706 1.9113-3.5 3.9492-3.5 2.038 0 3.7008 1.5294 3.9492 3.5 0.021-0.1655 0.050781-0.3288 0.050781-0.5 0-2.2091-1.7909-4-4-4zm-3 4.5v1h6v-1h-6z" color="#000000" color-rendering="auto" fill-opacity=".2" image-rendering="auto" shape-rendering="auto" solid-color="#000000" style="isolation:auto;mix-blend-mode:normal;text-decoration-color:#000000;text-decoration-line:none;text-decoration-style:solid;text-indent:0;text-transform:none;white-space:normal"/>
</svg>
