<svg width="15" height="15" version="1.1" viewBox="0 0 15 15" xmlns="http://www.w3.org/2000/svg">
 <path d="m0 0.0019531v14.998h1v-14.998h-1zm3.834 8.168c-0.14457 0.15113-0.3082 0.29559-0.49219 0.43359-0.17743 0.1314-0.36537 0.25795-0.5625 0.38281-0.19714 0.11827-0.3991 0.2308-0.60938 0.33594-0.20371 0.0986-0.40123 0.18676-0.5918 0.26562l0.44336 1.1348c0.22999-0.078866 0.46585-0.17221 0.70898-0.27734 0.24314-0.11167 0.46302-0.23181 0.66016-0.36328v4.918h1.4688v-6.8301h-1.0254zm4.0703 1.3691c-0.63084 0-1.1269 0.14129-1.4883 0.42383-0.36142 0.2826-0.54297 0.66608-0.54297 1.1523 0 0.24973 0.037088 0.46322 0.10938 0.64062 0.072287 0.1774 0.17326 0.33338 0.30469 0.46484 0.13142 0.1248 0.28866 0.23222 0.47266 0.32422 0.19056 0.092 0.40086 0.18016 0.63086 0.26562 0.2957 0.11167 0.51559 0.21464 0.66016 0.30664 0.14457 0.085466 0.2168 0.18642 0.2168 0.30469 0 0.15107-0.054309 0.25397-0.16602 0.30664-0.11171 0.052666-0.30285 0.078125-0.57227 0.078125-0.25627 0-0.51644-0.025459-0.7793-0.078125-0.26285-0.059134-0.51787-0.13773-0.76758-0.23633l-0.24609 1.1934c0.11828 0.052533 0.32858 0.11645 0.63086 0.19531 0.30885 0.078867 0.69236 0.11914 1.1523 0.11914 0.70313 0 1.2458-0.13166 1.627-0.39453 0.3877-0.2628 0.58008-0.64951 0.58008-1.1621 0-0.21687-0.025525-0.408-0.078125-0.57226-0.045993-0.16427-0.13101-0.31196-0.25586-0.44336-0.11829-0.138-0.28191-0.26327-0.49219-0.375-0.21028-0.11827-0.47683-0.23714-0.79883-0.35547-0.15771-0.059134-0.28939-0.11025-0.39453-0.15625-0.098573-0.052667-0.17719-0.099339-0.23633-0.13867-0.059127-0.046-0.099407-0.092672-0.11914-0.13867-0.019733-0.0458-0.029297-0.096917-0.029297-0.15625 0-0.25627 0.22947-0.38477 0.68945-0.38477 0.24971 0 0.47279 0.02236 0.66992 0.06836 0.20371 0.0458 0.39165 0.098869 0.5625 0.1582l0.25586-1.1445c-0.17085-0.0656-0.40032-0.12311-0.68945-0.17578-0.28913-0.059333-0.59083-0.089844-0.90625-0.089844z" fill="#304251"/>
</svg>
