<svg width="15" height="15" version="1.1" viewBox="0 0 15 15" xmlns="http://www.w3.org/2000/svg">
 <path d="m0 0.0019531v3 1 10 0.99805h1 14v-0.99805-11h-14v-3h-1zm1 4h13v10h-13v-10zm1 1v3.1504l2.9434 2.9434 4.7871-4.7871a0.50005 0.50005 0 0 1 0.70703 0l2.5625 2.5625v-3.8691h-11zm2.875 1c1.0294 0 1.875 0.8456 1.875 1.875 1e-4 1.0294-0.8456 1.875-1.875 1.875-1.0295 0-1.8751-0.8456-1.875-1.875 0-1.0294 0.8456-1.875 1.875-1.875zm0 1c-0.489 0-0.875 0.386-0.875 0.875-1e-4 0.489 0.386 0.875 0.875 0.875 0.4889 0 0.875-0.386 0.875-0.875s-0.3861-0.875-0.875-0.875zm5.209 0.36719-4.7871 4.7871a0.50005 0.50005 0 0 1-0.70703 0l-2.5898-2.5898v3.4336h11v-2.7148l-2.916-2.916z" fill="#304251"/>
</svg>
