<svg width="20" height="20" version="1.1" viewBox="0 0 20 20" xmlns="http://www.w3.org/2000/svg">
 <path d="m7 0v4h1v-4zm1 4v16h12v-16zm-1 0h-5c-1.108 0-2 0.892-2 2v12c0 1.108 0.892 2 2 2h5zm-4.2578 5h1.3242l1.9336 3-1.9336 3h-1.3242l1.9688-3z" color="#000000" color-rendering="auto" fill="#b8cee0" image-rendering="auto" shape-rendering="auto" solid-color="#000000" style="isolation:auto;mix-blend-mode:normal;text-decoration-color:#000000;text-decoration-line:none;text-decoration-style:solid;text-indent:0;text-transform:none;white-space:normal"/>
 <path d="m7 0v1h1v-1zm-5 4c-1.108 0-2 0.892-2 2v1c0-1.108 0.892-2 2-2h5v-1zm6 0v1h12v-1zm-5.2578 6 1.6406 2.5 0.3282-0.5-1.3125-2zm2.9356 2.5-1.6114 2.5h-0.6679l-0.6563 1h1.3242l1.9336-3z" color="#000000" color-rendering="auto" fill-opacity=".2" image-rendering="auto" shape-rendering="auto" solid-color="#000000" style="isolation:auto;mix-blend-mode:normal;text-decoration-color:#000000;text-decoration-line:none;text-decoration-style:solid;text-indent:0;text-transform:none;white-space:normal"/>
</svg>
