<svg width="20" height="20" version="1.1" viewBox="0 0 20 20" xmlns="http://www.w3.org/2000/svg">
 <path d="m19 0v20h1v-20zm-19 4v16h11c1.108 0 2-0.892 2-2v-12c0-1.108-0.892-2-2-2zm14.742 5 1.9688 3-1.9688 3h1.3242l1.9336-3-1.9336-3z" color="#000000" color-rendering="auto" fill="#b8cee0" image-rendering="auto" shape-rendering="auto" solid-color="#000000" style="isolation:auto;mix-blend-mode:normal;text-decoration-color:#000000;text-decoration-line:none;text-decoration-style:solid;text-indent:0;text-transform:none;white-space:normal"/>
 <path d="m19 0v1h1v-1zm-19 4v1h11c1.108 0 2 0.892 2 2v-1c0-1.108-0.892-2-2-2zm14.742 5 0.6563 1h0.6679l1.6114 2.5 0.3222-0.5-1.9336-3zm1.6406 3.5-1.6406 2.5h0.6563l1.3125-2z" color="#000000" color-rendering="auto" fill-opacity=".2" image-rendering="auto" shape-rendering="auto" solid-color="#000000" style="isolation:auto;mix-blend-mode:normal;text-decoration-color:#000000;text-decoration-line:none;text-decoration-style:solid;text-indent:0;text-transform:none;white-space:normal"/>
</svg>
