<svg width="20" height="20" version="1.1" viewBox="0 0 20 20" xmlns="http://www.w3.org/2000/svg">
 <path d="m14 0v4h1v-4zm1 4v16h5v-16zm-1 0h-5c-1.108 0-2 0.892-2 2v12c0 1.108 0.892 2 2 2h5zm-14 0v16h4c1.108 0 2-0.892 2-2v-12c0-1.108-0.892-2-2-2zm2 5h1.3243l1.9335 3-1.9335 3h-1.3243l1.9688-3zm7 0h1.3243l1.9335 3-1.9335 3h-1.3243l1.9688-3z" color="#000000" color-rendering="auto" fill="#b8cee0" image-rendering="auto" shape-rendering="auto" solid-color="#000000" style="isolation:auto;mix-blend-mode:normal;text-decoration-color:#000000;text-decoration-line:none;text-decoration-style:solid;text-indent:0;text-transform:none;white-space:normal"/>
 <path d="m14 0v1h1v-1zm-14 4v1h4c1.108 0 2 0.892 2 2v-1c0-1.108-0.892-2-2-2zm9 0c-1.108 0-2 0.892-2 2v1c0-1.108 0.892-2 2-2h5v-1zm6 0v1h5v-1zm-13 6 1.6407 2.5 0.3281-0.5-1.3125-2zm7 0 1.6407 2.5 0.3281-0.5-1.3125-2zm-4.0644 2.5-1.6113 2.5h-0.668l-0.6563 1h1.3243l1.9335-3zm7 0-1.6113 2.5h-0.668l-0.6563 1h1.3243l1.9335-3z" color="#000000" color-rendering="auto" fill-opacity=".2" image-rendering="auto" shape-rendering="auto" solid-color="#000000" style="isolation:auto;mix-blend-mode:normal;text-decoration-color:#000000;text-decoration-line:none;text-decoration-style:solid;text-indent:0;text-transform:none;white-space:normal"/>
</svg>
