<svg width="20" height="20" version="1.1" viewBox="0 0 20 20" xmlns="http://www.w3.org/2000/svg">
 <path d="m18 4c1.108 0 2 0.892 2 2v12c0 1.108-0.892 2-2 2h-16c-1.108 0-2-0.892-2-2v-12c0-1.108 0.892-2 2-2zm-2 2h-1v12h1zm-3.9336 3h-1.3242l1.9687 3-1.9687 3h1.3242l1.9336-3z" color="#000000" color-rendering="auto" fill="#b8cee0" image-rendering="auto" shape-rendering="auto" solid-color="#000000" style="isolation:auto;mix-blend-mode:normal;text-decoration-color:#000000;text-decoration-line:none;text-decoration-style:solid;text-indent:0;text-transform:none;white-space:normal"/>
 <path d="m18 4c1.108 0 2 0.892 2 2v1c0-1.108-0.892-2-2-2h-16c-1.108 0-2 0.892-2 2v-1c0-1.108 0.892-2 2-2zm-6.6016 6 1.3125 2-0.3281 0.5-1.6406-2.5zm2.2793 2.5 0.3223 0.5-1.9336 3h-1.3242l0.6562-1h0.668zm2.3223 5.5v1h-1v-1z" color="#000000" color-rendering="auto" fill-opacity=".2" image-rendering="auto" shape-rendering="auto" solid-color="#000000" style="isolation:auto;mix-blend-mode:normal;text-decoration-color:#000000;text-decoration-line:none;text-decoration-style:solid;text-indent:0;text-transform:none;white-space:normal"/>
</svg>
