<svg width="24" height="20" version="1.1" viewBox="0 0 24 20" xmlns="http://www.w3.org/2000/svg"><path d="m6 5.5c-1.1045 0-2 0.89547-2 2s0.8955 2 2 2h6c1.1045 0 2-0.89547 2-2s-0.8955-2-2-2h-6zm11 0c-1.1045 0-2 0.89547-2 2s0.8955 2 2 2h1.5c0 1.1162-0.88384 2-2 2h-1.5v-2l-4 3 4 3v-2h1.5c2.1971 0 4-1.8029 4-4h1.5c1.1045 0 2-0.89547 2-2s-0.8955-2-2-2h-5zm-11 5c-1.1045 0-2 0.89547-2 2s0.8955 2 2 2h2c1.1045 0 2-0.89547 2-2s-0.8955-2-2-2h-2z" fill="#fff" fill-opacity=".4" style="isolation:auto;mix-blend-mode:normal;text-decoration-color:#000000;text-decoration-line:none;text-decoration-style:solid;text-indent:0;text-transform:none;white-space:normal"/></svg>
