<svg width="20" height="20" version="1.1" viewBox="0 0 20 20" xmlns="http://www.w3.org/2000/svg">
 <path d="m6 0v4h-1v-4zm-1 4v16h-5v-16zm1 0h5c1.108 0 2 0.892 2 2v12c0 1.108-0.892 2-2 2h-5zm14 0v16h-4c-1.108 0-2-0.892-2-2v-12c0-1.108 0.892-2 2-2zm-2 5h-1.3243l-1.9335 3 1.9335 3h1.3243l-1.9688-3zm-7 0h-1.3243l-1.9335 3 1.9335 3h1.3243l-1.9688-3z" color="#000000" color-rendering="auto" fill="#b8cee0" image-rendering="auto" shape-rendering="auto" solid-color="#000000" style="isolation:auto;mix-blend-mode:normal;text-decoration-color:#000000;text-decoration-line:none;text-decoration-style:solid;text-indent:0;text-transform:none;white-space:normal"/>
 <path d="m6 0v1h-1v-1zm14 4v1h-4c-1.108 0-2 0.892-2 2v-1c0-1.108 0.892-2 2-2zm-9 0c1.108 0 2 0.892 2 2v1c0-1.108-0.892-2-2-2h-5v-1zm-6 0v1h-5v-1zm13 6-1.6407 2.5-0.3281-0.5 1.3125-2zm-7 0-1.6407 2.5-0.3281-0.5 1.3125-2zm4.0644 2.5 1.6113 2.5h0.668l0.6563 1h-1.3243l-1.9335-3zm-7 0 1.6113 2.5h0.668l0.6563 1h-1.3243l-1.9335-3z" color="#000000" color-rendering="auto" fill-opacity=".2" image-rendering="auto" shape-rendering="auto" solid-color="#000000" style="isolation:auto;mix-blend-mode:normal;text-decoration-color:#000000;text-decoration-line:none;text-decoration-style:solid;text-indent:0;text-transform:none;white-space:normal"/>
</svg>
