<svg width="20" height="20" version="1.1" viewBox="0 0 20 20" xmlns="http://www.w3.org/2000/svg">
 <path d="m13 0v4h-1v-4zm-1 4v16h-12v-16zm1 0h5c1.108 0 2 0.892 2 2v12c0 1.108-0.892 2-2 2h-5zm4.2578 5h-1.3242l-1.9336 3 1.9336 3h1.3242l-1.9688-3z" color="#000000" color-rendering="auto" fill="#b8cee0" image-rendering="auto" shape-rendering="auto" solid-color="#000000" style="isolation:auto;mix-blend-mode:normal;text-decoration-color:#000000;text-decoration-line:none;text-decoration-style:solid;text-indent:0;text-transform:none;white-space:normal"/>
 <path d="m13 0v1h-1v-1zm5 4c1.108 0 2 0.892 2 2v1c0-1.108-0.892-2-2-2h-5v-1zm-6 0v1h-12v-1zm5.2578 6-1.6406 2.5-0.3282-0.5 1.3125-2zm-2.9356 2.5 1.6114 2.5h0.6679l0.6563 1h-1.3242l-1.9336-3z" color="#000000" color-rendering="auto" fill-opacity=".2" image-rendering="auto" shape-rendering="auto" solid-color="#000000" style="isolation:auto;mix-blend-mode:normal;text-decoration-color:#000000;text-decoration-line:none;text-decoration-style:solid;text-indent:0;text-transform:none;white-space:normal"/>
</svg>
