<svg width="20" height="20" version="1.1" viewBox="0 0 20 20" xmlns="http://www.w3.org/2000/svg">
 <path d="m1 0v20h-1v-20zm19 4v16h-11c-1.108 0-2-0.892-2-2v-12c0-1.108 0.892-2 2-2zm-14.742 5-1.9688 3 1.9688 3h-1.3242l-1.9336-3 1.9336-3z" color="#000000" color-rendering="auto" fill="#b8cee0" image-rendering="auto" shape-rendering="auto" solid-color="#000000" style="isolation:auto;mix-blend-mode:normal;text-decoration-color:#000000;text-decoration-line:none;text-decoration-style:solid;text-indent:0;text-transform:none;white-space:normal"/>
 <path d="m1 0v1h-1v-1zm19 4v1h-11c-1.108 0-2 0.892-2 2v-1c0-1.108 0.892-2 2-2zm-14.742 5-0.6563 1h-0.6679l-1.6114 2.5-0.3222-0.5 1.9336-3zm-1.6406 3.5 1.6406 2.5h-0.6563l-1.3125-2z" color="#000000" color-rendering="auto" fill-opacity=".2" image-rendering="auto" shape-rendering="auto" solid-color="#000000" style="isolation:auto;mix-blend-mode:normal;text-decoration-color:#000000;text-decoration-line:none;text-decoration-style:solid;text-indent:0;text-transform:none;white-space:normal"/>
</svg>
