<svg width="20" height="20" version="1.1" viewBox="0 0 20 20" xmlns="http://www.w3.org/2000/svg">
 <g transform="translate(-1.8634 -10.399)">
  <path d="m4.3637 10.399c-1.1 0-2 0.9-2 2v16c0 1.1 0.9 2 2 2h9v-2h-9v-16h7v5h5v5h2v-6l-6-6zm10.641 13.631v5.6602h1.998v-2.2402l2.9512 2.9492 1.4101-1.4102-2.9511-2.959h2.2402v-2z" fill="#b8cee0"/>
  <path d="m4.3632 10.4c-1.1 0-2 0.9-2 2v1c0-1.1 0.9-2 2-2h8l6 6v-1l-6-6zm10.641 13.631v1h5.6484v-1zm3.4082 3 2.4512 2.459 0.5-0.5-1.9532-1.959zm-14.049 1.3692v1h9v-1z" fill-opacity=".2"/>
 </g>
</svg>
