<svg width="20" height="20" version="1.1" viewBox="0 0 20 20" xmlns="http://www.w3.org/2000/svg">
 <g transform="translate(0 -10.87)" shape-rendering="auto">
  <path d="m10.967 10.87v2.0065a8.0272 8.0272 0 0 1 2.0814 0.546l1.0091-1.7482a10.034 10.034 0 0 0-3.0905-0.8043zm-2.0066 0a10.034 10.034 0 0 0-3.0855 0.8103l1.0099 1.7496a8.0272 8.0272 0 0 1 2.0756-0.5546zm9.5313 1.4514-1.4187 1.4194a10.034 10.034 0 0 0-1.2803-1.061l-1.0029 1.7374a8.0272 8.0272 0 0 1 0.8643 0.7425l-1.4194 1.4191 4.9666 0.7092zm-14.349 0.3725a10.034 10.034 0 0 0-1.2596 1.0469 10.034 10.034 0 0 0-1.0062 1.2006l1.7372 1.0029a8.0272 8.0272 0 0 1 0.6883-0.7846 8.0272 8.0272 0 0 1 0.8434-0.7284zm4.8181 2.1217v6.6004l0.5016 0.2899 1.505 0.8703 3.708 2.14 1.0033-1.7402-4.7113-2.7201v-5.4403zm-8.1065 1.8531a10.034 10.034 0 0 0-0.8351 3.0972h2.0046a8.0272 8.0272 0 0 1 0.5802-2.0872zm16.712 1.6022a8.0272 8.0272 0 0 1-1.9123 8.2412 8.0272 8.0272 0 0 1-11.352 0 8.0272 8.0272 0 0 1-0.7535-0.8807l-1.7378 1.0037a10.034 10.034 0 0 0 1.072 1.296 10.034 10.034 0 0 0 14.19 0 10.034 10.034 0 0 0 2.6649-9.3498zm-17.564 3.5018a10.034 10.034 0 0 0 0.8041 3.1247l1.7484-1.0094a8.0272 8.0272 0 0 1-0.5432-2.1153z" color="#000000" color-rendering="auto" fill="#b8cee0" image-rendering="auto" solid-color="#000000" style="isolation:auto;mix-blend-mode:normal;text-decoration-color:#000000;text-decoration-line:none;text-decoration-style:solid;text-indent:0;text-transform:none;white-space:normal"/>
  <path d="m8.9621 10.869a10.034 10.034 0 0 0-3.086 0.8106l0.4805 0.832a10.034 10.034 0 0 1 2.6055-0.6426zm2.0058 0v1a10.034 10.034 0 0 1 2.6114 0.6367l0.4804-0.832a10.034 10.034 0 0 0-3.0918-0.8047zm7.5254 1.4512-1.4179 1.4199a10.034 10.034 0 0 0-1.2813-1.0605l-1.0019 1.7363a8.0272 8.0272 0 0 1 0.3847 0.332l0.6172-1.0683a10.034 10.034 0 0 1 1.2813 1.0605l1.4179-1.4199 0.5625 3.9453 0.1465 0.021zm-14.35 0.373a10.034 10.034 0 0 0-1.2597 1.0469 10.034 10.034 0 0 0-1.0059 1.2012l0.5645 0.3262a10.034 10.034 0 0 1 0.4414-0.5274 10.034 10.034 0 0 1 1.2597-1.0469l0.6192 1.0704a8.0272 8.0272 0 0 1 0.3847-0.3321zm4.8184 2.1211v1h2.0058v-1zm6.1562 0.8828-0.8828 0.8809 0.877 0.125 0.5429-0.543a8.0272 8.0272 0 0 0-0.5371-0.4629zm-14.264 0.9708a10.034 10.034 0 0 0-0.834 3.0976h0.1855a10.034 10.034 0 0 1 0.6485-2.0976l1.5097 0.871a8.0272 8.0272 0 0 1 0.2403-0.8613zm16.713 1.6035a8.0272 8.0272 0 0 1 0.2753 1.039l1.8965 0.2696a10.034 10.034 0 0 1 0.2442 1.7773 10.034 10.034 0 0 0-0.2442-2.7773zm-6.5997 1.9843v1l4.2793 2.4707 0.4317-0.75zm7.0079 1.0899a8.0272 8.0272 0 0 1-2.3204 5.166 8.0272 8.0272 0 0 1-11.351 0 8.0272 8.0272 0 0 1-0.7539-0.8809l-1.7383 1.0039a10.034 10.034 0 0 0 0.5605 0.6778l1.1778-0.6817a8.0272 8.0272 0 0 0 0.7539 0.8809 8.0272 8.0272 0 0 0 11.351 0 8.0272 8.0272 0 0 0 2.3204-6.166zm-17.973 0.4258a10.034 10.034 0 0 0 0.1738 1h1.836a8.0272 8.0272 0 0 0 0.3203 1.2441l0.2226-0.1289a8.0272 8.0272 0 0 1-0.5429-2.1152z" color="#000000" color-rendering="auto" fill-opacity=".2" image-rendering="auto" solid-color="#000000" style="isolation:auto;mix-blend-mode:normal;text-decoration-color:#000000;text-decoration-line:none;text-decoration-style:solid;text-indent:0;text-transform:none;white-space:normal"/>
 </g>
</svg>
