<svg width="20" height="20" version="1.1" viewBox="0 0 20 20" xmlns="http://www.w3.org/2000/svg">
 <path d="m9.3897 0.017242a10.001 10.001 0 0 0-6.4676 2.9108l-1.414-1.4146-0.7072 4.9498 4.95-0.7066-1.4146-1.4146a8.0005 8.0005 0 0 1 9.7442-1.2134 2.3376 2.3376 0 0 0-0.068 0.5138 2.3376 2.3376 0 0 0 2.3378 2.3376 2.3376 2.3376 0 0 0 2.3377-2.3376 2.3376 2.3376 0 0 0-2.3377-2.3376 2.3376 2.3376 0 0 0-1.0178 0.2508 10.001 10.001 0 0 0-5.9432-1.5384zm-0.3962 3.9818v6.5786l0.5002 0.289 1.5 0.8672 3.6954 2.133 1.0002-1.7344-4.6956-2.7112v-5.4222zm10.262 2.233a3.8922 3.8922 0 0 1-1.7163 1.115 8.0005 8.0005 0 0 1-1.8884 8.3098 8.0005 8.0005 0 0 1-11.315 0 8.0005 8.0005 0 0 1-1.906-8.2138l-2.1642 0.3094a10.001 10.001 0 0 0 2.656 9.3184 10.001 10.001 0 0 0 14.143 0 10.001 10.001 0 0 0 2.1905-10.839z" color="#000000" color-rendering="auto" fill="#b8cee0" image-rendering="auto" shape-rendering="auto" solid-color="#000000" style="isolation:auto;mix-blend-mode:normal;text-decoration-color:#000000;text-decoration-line:none;text-decoration-style:solid;text-indent:0;text-transform:none;white-space:normal"/>
 <path d="m9.3902 0.017642a10.001 10.001 0 0 0-6.4688 2.9102l-1.414-1.4141-0.7071 4.9493 0.1465-0.021 0.5606-3.9278 1.414 1.4141a10.001 10.001 0 0 1 6.4688-2.9102 10.001 10.001 0 0 1 5.9414 1.5372 2.3376 2.3376 0 0 1 1.0195-0.25 2.3376 2.3376 0 0 1 2.2754 1.8378 2.3376 2.3376 0 0 0 0.061-0.5 2.3376 2.3376 0 0 0-2.3359-2.3378 2.3376 2.3376 0 0 0-1.0195 0.25 10.001 10.001 0 0 0-5.9414-1.5372zm-0.3965 3.9805v1h2v-1zm-4.0899 0.9102a8.0005 8.0005 0 0 0-0.5683 0.4336l0.539 0.539 0.877-0.125zm14.352 1.3242a3.8922 3.8922 0 0 1-1.7168 1.1152 8.0005 8.0005 0 0 1 0.252 0.8809 3.8922 3.8922 0 0 0 1.4648-0.9961 10.001 10.001 0 0 1 0.7207 3.2891 10.001 10.001 0 0 0-0.7207-4.2891zm-16.824 1.2109-2.166 0.3086a10.001 10.001 0 0 0-0.1953 2.9102 10.001 10.001 0 0 1 0.1953-1.9102l1.9687-0.2812a8.0005 8.0005 0 0 1 0.1973-1.0274zm8.5625 1.9785v1l4.2637 2.461 0.4316-0.75zm-8.918 0.877a8.0005 8.0005 0 0 0 2.2598 6.3574 8.0005 8.0005 0 0 0 11.314 0 8.0005 8.0005 0 0 0 2.3243-6.1465 8.0005 8.0005 0 0 1-2.3243 5.1465 8.0005 8.0005 0 0 1-11.314 0 8.0005 8.0005 0 0 1-2.2598-5.3574z" color="#000000" color-rendering="auto" fill-opacity=".2" image-rendering="auto" shape-rendering="auto" solid-color="#000000" style="isolation:auto;mix-blend-mode:normal;text-decoration-color:#000000;text-decoration-line:none;text-decoration-style:solid;text-indent:0;text-transform:none;white-space:normal"/>
</svg>
