<svg width="24" height="24" version="1.1" viewBox="0 0 24 24" xmlns="http://www.w3.org/2000/svg">
 <g transform="translate(1.4629,6.0665)" shape-rendering="auto">
  <path d="m10.537-6.0665v24h1v-24zm4 4c-1.108 0-2 0.892-2 2v16c0 1.108 0.892 2 2 2h8v-20zm-16 5v10l10-5z" color="#000000" color-rendering="auto" fill="#b8cee0" image-rendering="auto" solid-color="#000000" style="isolation:auto;mix-blend-mode:normal;text-decoration-color:#000000;text-decoration-line:none;text-decoration-style:solid;text-indent:0;text-transform:none;white-space:normal"/>
  <path d="m10.537-6.0665v1h1v-1zm4 4c-1.108 0-2 0.892-2 2v1c0-1.108 0.892-2 2-2h8v-1zm-16 5v1l9 4.5 1-0.5z" color="#000000" color-rendering="auto" fill-opacity=".2" image-rendering="auto" solid-color="#000000" style="isolation:auto;mix-blend-mode:normal;text-decoration-color:#000000;text-decoration-line:none;text-decoration-style:solid;text-indent:0;text-transform:none;white-space:normal"/>
 </g>
</svg>
