<svg width="20" height="20" version="1.1" viewBox="0 0 20 20" xmlns="http://www.w3.org/2000/svg">
 <g transform="translate(26.573 -33.887)" shape-rendering="auto">
  <path d="m-19.573 33.887c-2.2091 0-4 1.7909-4 4s1.7909 4 4 4c2.2092 0 4.0001-1.7909 4.0001-4s-1.7909-4-4.0001-4zm3 3.5v1h-6v-1zm-8 0.5c-1.1079 0-2 0.892-2 2v12c0 1.108 0.8921 2 2 2h16c1.108 0 2-0.892 2-2v-12c0-1.108-0.892-2-2-2h-6c0 2.7614-2.2386 5-5.0001 5-2.7613 0-5-2.2386-5-5z" color="#000000" color-rendering="auto" fill="#b8cee0" image-rendering="auto" solid-color="#000000" style="isolation:auto;mix-blend-mode:normal;text-decoration-color:#000000;text-decoration-line:none;text-decoration-style:solid;text-indent:0;text-transform:none;white-space:normal"/>
  <path d="m-19.573 33.887c-2.2091 0-4 1.7909-4 4 0 0.1712 0.03 0.3345 0.051 0.5 0.2484-1.9706 1.9113-3.5 3.9492-3.5 2.038 0 3.7008 1.5294 3.9492 3.5 0.021-0.1655 0.051-0.3288 0.051-0.5 0-2.2091-1.7909-4-4-4zm-5 4c-1.1079 0-2 0.892-2 2v1c0-1.108 0.8921-2 2-2 0 2.7614 2.2387 5 5 5 2.7615 0 5.0001-2.2386 5.0001-5h6c1.108 0 2 0.892 2 2v-1c0-1.108-0.892-2-2-2h-6c0 2.7614-2.2386 5-5.0001 5-2.7613 0-5-2.2386-5-5zm2 0.5v1h6v-1z" color="#000000" color-rendering="auto" fill-opacity=".2" image-rendering="auto" solid-color="#000000" style="isolation:auto;mix-blend-mode:normal;text-decoration-color:#000000;text-decoration-line:none;text-decoration-style:solid;text-indent:0;text-transform:none;white-space:normal"/>
 </g>
</svg>
