<svg width="20" height="20" version="1.1" viewBox="0 0 20 20" xmlns="http://www.w3.org/2000/svg">
 <g transform="translate(-22.276 -1.4066)" stroke-width="1.1111">
  <path d="m37.832 1.4066h-13.333c-1.2333 0-2.2222 1-2.2222 2.2222v15.556c0 1.2222 0.9889 2.2222 2.2222 2.2222h15.556c1.2222 0 2.2222-1 2.2222-2.2222v-13.333zm2.2222 17.778h-15.556v-15.556h12.411l3.1445 3.1444zm-7.7778-7.7778c-1.8444 0-3.3333 1.4889-3.3333 3.3333 0 1.8444 1.4889 3.3333 3.3333 3.3333s3.3333-1.4889 3.3333-3.3333c0-1.8444-1.4889-3.3333-3.3333-3.3333zm-6.6667-6.6667h10v4.4444h-10z" fill="#b8cee0"/>
  <path d="m24.499 1.4074c-1.2333 0-2.2227 0.99849-2.2227 2.2207v1c0-1.2222 0.9894-2.2207 2.2227-2.2207h13.334l4.4433 4.4434v-1l-4.4433-4.4434zm1.1113 3.332v1h10v-1zm6.666 6.668c-1.8444 0-3.334 1.4876-3.334 3.332 0 0.17017 0.017 0.33678 0.041 0.5 0.241-1.6055 1.619-2.832 3.2929-2.832 1.674 0 3.052 1.2265 3.293 2.832 0.024-0.16322 0.041-0.32983 0.041-0.5 0-1.8444-1.4896-3.332-3.334-3.332zm-7.7773 7.7774v1h15.555v-1z" fill-opacity=".2"/>
 </g>
</svg>
