<svg width="20" height="20" version="1.1" viewBox="0 0 20 20" xmlns="http://www.w3.org/2000/svg">
 <g transform="translate(-4.0665 -7.9488)" shape-rendering="auto">
  <path d="m24.066 11.949v16h-3c-1.108 0-2-0.892-2-2v-1.1992a5 5 0 0 0 4-4.8008 5 5 0 0 0-4-4.8008v-1.1992c0-1.108 0.892-2 2-2zm-8 0c1.108 0 2 0.892 2 2v1a5 5 0 0 0-5 5 5 5 0 0 0 5 5v1c0 1.108-0.892 2-2 2h-12v-4h4c2.2091 0 4-1.7909 4-4s-1.7909-4-4-4h-4v-4zm2 4a4 4 0 0 1 4 4 4 4 0 0 1-4 4 4 4 0 0 1-4-4 4 4 0 0 1 4-4zm-0.7676 1.5254-0.707 0.707 1.7675 1.7676-1.7675 1.7676 0.707 0.707 2.4746-2.4746-0.707-0.707z" color="#000000" color-rendering="auto" fill="#b8cee0" image-rendering="auto" solid-color="#000000" style="isolation:auto;mix-blend-mode:normal;text-decoration-color:#000000;text-decoration-line:none;text-decoration-style:solid;text-indent:0;text-transform:none;white-space:normal"/>
  <path d="m24.066 11.949v1h-3c-1.108 0-2 0.892-2 2v-1c0-1.108 0.892-2 2-2zm-8 0c1.108 0 2 0.892 2 2v1c0-1.108-0.892-2-2-2h-12v-1zm2 4a4 4 0 0 1 1 0.1992 5 5 0 0 1 0.8887 0.3457 4 4 0 0 1 2.1113 3.4551 4 4 0 0 1-0.1 0.5 4 4 0 0 0-3.9004-3.5 4 4 0 0 0-3.9356 3.3242 4 4 0 0 1-0.064-0.3242 4 4 0 0 1 4-4zm-0.9746 2.7324 1.2675 1.2676-0.5 0.5-1.2675-1.2676zm-3.9688 1.5488a5 5 0 0 0 3.4121 4.4141 4 4 0 0 0 1.5313 0.3047v1a5 5 0 0 1-5-5 5 5 0 0 1 0.057-0.7188zm9.8477 0.2188a5 5 0 0 1 0.096 0.5 5 5 0 0 1-4 4.8008v-1a4 4 0 0 0 0.8887-0.3457 5 5 0 0 0 3.0156-3.9551zm-3.6973 0 0.5 0.5-2.4746 2.4746-0.707-0.707 0.5-0.5 0.207 0.207 1.7676-1.7676zm-7.2578 0c0.021 0.1655 0.051 0.3288 0.051 0.5 0 2.2091-1.7909 4-4 4h-4v-1h4c2.0379 0 3.7008-1.5295 3.9492-3.5z" color="#000000" color-rendering="auto" fill-opacity=".2" image-rendering="auto" solid-color="#000000" style="isolation:auto;mix-blend-mode:normal;text-decoration-color:#000000;text-decoration-line:none;text-decoration-style:solid;text-indent:0;text-transform:none;white-space:normal"/>
 </g>
</svg>
