<svg width="20" height="20" version="1.1" viewBox="0 0 20 20" xmlns="http://www.w3.org/2000/svg">
 <g transform="translate(1.867 -8.6138)" shape-rendering="auto">
  <path d="m-1.867 12.614v16h3c1.108 0 2-0.892 2-2v-1.1992a5 5 0 0 1-4-4.8008 5 5 0 0 1 4-4.8008v-1.1992c0-1.108-0.892-2-2-2zm8 0c-1.108 0-2 0.892-2 2v1a5 5 0 0 1 5 5 5 5 0 0 1-5 5v1c0 1.108 0.892 2 2 2h12v-4h-4c-2.2091 0-4-1.7909-4-4s1.7909-4 4-4h4v-4zm-2 4a4 4 0 0 0-4 4 4 4 0 0 0 4 4 4 4 0 0 0 4-4 4 4 0 0 0-4-4zm0.7676 1.5254 0.707 0.707-1.7675 1.7676 1.7675 1.7676-0.707 0.707-2.4746-2.4746 0.707-0.707z" color="#000000" color-rendering="auto" fill="#b8cee0" image-rendering="auto" solid-color="#000000" style="isolation:auto;mix-blend-mode:normal;text-decoration-color:#000000;text-decoration-line:none;text-decoration-style:solid;text-indent:0;text-transform:none;white-space:normal"/>
  <path d="m-1.867 12.614v1h3c1.108 0 2 0.892 2 2v-1c0-1.108-0.892-2-2-2zm8 0c-1.108 0-2 0.892-2 2v1c0-1.108 0.892-2 2-2h12v-1zm-2 4a4 4 0 0 0-1 0.1992 5 5 0 0 0-0.8887 0.3457 4 4 0 0 0-2.1113 3.4551 4 4 0 0 0 0.1 0.5 4 4 0 0 1 3.9004-3.5 4 4 0 0 1 3.9356 3.3242 4 4 0 0 0 0.064-0.3242 4 4 0 0 0-4-4zm0.9746 2.7324-1.2675 1.2676 0.5 0.5 1.2675-1.2676zm3.9688 1.5488a5 5 0 0 1-3.4121 4.4141 4 4 0 0 1-1.5313 0.3047v1a5 5 0 0 0 5-5 5 5 0 0 0-0.057-0.7188zm-9.8477 0.2188a5 5 0 0 0-0.096 0.5 5 5 0 0 0 4 4.8008v-1a4 4 0 0 1-0.8887-0.3457 5 5 0 0 1-3.0156-3.9551zm3.6973 0-0.5 0.5 2.4746 2.4746 0.707-0.707-0.5-0.5-0.207 0.207-1.7676-1.7676zm7.2578 0c-0.021 0.1655-0.051 0.3288-0.051 0.5 0 2.2091 1.7909 4 4 4h4v-1h-4c-2.0379 0-3.7008-1.5295-3.9492-3.5z" color="#000000" color-rendering="auto" fill-opacity=".2" image-rendering="auto" solid-color="#000000" style="isolation:auto;mix-blend-mode:normal;text-decoration-color:#000000;text-decoration-line:none;text-decoration-style:solid;text-indent:0;text-transform:none;white-space:normal"/>
 </g>
</svg>
