<svg width="20" height="20" version="1.1" viewBox="0 0 20 20" xmlns="http://www.w3.org/2000/svg">
 <path d="m7 0v20h1v-20zm-7 4v16h4c1.108 0 2-0.892 2-2v-12c0-1.108-0.892-2-2-2zm11 0c-1.108 0-2 0.892-2 2v12c0 1.108 0.892 2 2 2h9v-16z" color="#000000" color-rendering="auto" fill="#b8cee0" image-rendering="auto" shape-rendering="auto" solid-color="#000000" style="isolation:auto;mix-blend-mode:normal;text-decoration-color:#000000;text-decoration-line:none;text-decoration-style:solid;text-indent:0;text-transform:none;white-space:normal"/>
 <path d="m7 0v1h1v-1zm-7 4v1h4c1.108 0 2 0.892 2 2v-1c0-1.108-0.892-2-2-2zm11 0c-1.108 0-2 0.892-2 2v1c0-1.108 0.892-2 2-2h9v-1z" color="#000000" color-rendering="auto" fill-opacity=".2" image-rendering="auto" shape-rendering="auto" solid-color="#000000" style="isolation:auto;mix-blend-mode:normal;text-decoration-color:#000000;text-decoration-line:none;text-decoration-style:solid;text-indent:0;text-transform:none;white-space:normal"/>
</svg>
