<svg width="15" height="15" version="1.1" viewBox="0 0 15 15" xmlns="http://www.w3.org/2000/svg">
 <path d="m0 1e-3v1h5c0.5713 0 1 0.4288 1 1v11c0 0.5713-0.4287 1.0001-1 1h-5v0.998h5.0195c1.0987-0.011 1.9805-0.8967 1.9805-1.998v-11c0-1.108-0.892-2-2-2zm14 0c-1.108 0-2 0.892-2 2v11c0 1.1013 0.8817 1.9874 1.9804 1.998h1.0196v-0.998h-1c-0.5713 0-1-0.4286-1-1v-11c0-0.5712 0.4287-1 1-1h1v-1zm-14 2v11h5v-11zm8 0v1h3v-1zm0 2v1h3v-1zm-7.1289 0.5h1.3242l1.9336 3-1.9336 3h-1.3242l1.9687-3zm7.1289 1.5v1h3v-1zm0 2v1h3v-1zm0 2v1h3v-1zm0 2v1h3v-1z" fill="#304251"/>
</svg>
