<svg width="15" height="15" version="1.1" viewBox="0 0 15 15" xmlns="http://www.w3.org/2000/svg">
 <g transform="matrix(3.7795 0 0 3.7795 -675.37 -395.34)">
  <path d="m178.69 104.6v0.26459h1.5875c0.15116 0 0.26458 0.11345 0.26458 0.26458v2.9109c0 0.15118-0.11342 0.26459-0.26458 0.26459h-1.5875v0.26406h1.5921c0.15724-2e-3 0.29641-0.072 0.39225-0.18138 0.0958 0.10926 0.23458 0.17987 0.39169 0.18138h1.5927v-0.26406h-1.5875c-0.15116 0-0.26458-0.11341-0.26458-0.26459v-2.9109c0-0.15113 0.11342-0.26458 0.26458-0.26458h1.5875v-0.26459h-1.5875c-0.1593 0-0.30004 0.0712-0.39687 0.1819-0.0969-0.1108-0.23749-0.1819-0.39688-0.1819zm0.26458 0.52969v2.9104h1.3229v-2.9104zm2.1167 0v2.9104h1.3229v-2.9104zm-1.8862 0.66145h0.35036l0.5116 0.79375-0.5116 0.79375h-0.35036l0.52089-0.79375zm2.6283 0h0.35036l-0.52091 0.79375 0.52091 0.79375h-0.35036l-0.5116-0.79375z" fill="#304251"/>
 </g>
</svg>
