<svg width="20" height="20" version="1.1" viewBox="0 0 20 20" xmlns="http://www.w3.org/2000/svg" xmlns:xlink="http://www.w3.org/1999/xlink">
 <defs>
  <radialGradient id="a" cx="1192.2" cy="412.76" r="13" gradientTransform="matrix(3.2651e-6 1.9455 -1.3846 0 573.51 -2317.4)" gradientUnits="userSpaceOnUse">
   <stop stop-color="#fff" offset="0"/>
   <stop stop-color="#fff" stop-opacity="0" offset="1"/>
  </radialGradient>
  <linearGradient id="c" x1="2" x2="20" y1="2" y2="2" gradientUnits="userSpaceOnUse">
   <stop stop-color="#4f5d6c" offset="0"/>
   <stop stop-color="#4f5d6c" stop-opacity="0" offset="1"/>
  </linearGradient>
  <linearGradient id="b" x2="20" y1="2.8656" y2="2.8656" gradientUnits="userSpaceOnUse">
   <stop stop-opacity=".2" offset="0"/>
   <stop stop-opacity="0" offset="1"/>
  </linearGradient>
 </defs>
 <path d="m2 1c-0.5713 0-1 0.4288-1 1v16c0 0.5714 0.4287 1 1 1h18v-18h-18z" fill="url(#c)"/>
 <path d="m2 0c-1.108 0-2 0.892-2 2v16c0 1.108 0.892 2 2 2h18v-1h-18c-0.5713 0-1-0.4286-1-1v-16c0-0.5712 0.4287-1 1-1h18v-1h-18z" fill="url(#b)"/>
 <path d="m2 1c-0.5713 0-1 0.4288-1 1v16c0 0.5714 0.4287 1 1 1v-17h18v-1h-18z" color="#000000" color-rendering="auto" fill="url(#a)" image-rendering="auto" opacity=".15" shape-rendering="auto" solid-color="#000000" style="isolation:auto;mix-blend-mode:normal;text-decoration-color:#000000;text-decoration-line:none;text-decoration-style:solid;text-indent:0;text-transform:none;white-space:normal"/>
</svg>
