<svg width="23" height="25" version="1.1" viewBox="0 0 23 25" xmlns="http://www.w3.org/2000/svg">
 <defs>
  <linearGradient id="a" x1="255.13" x2="309.62" y1="-651.64" y2="-651.64" gradientTransform="translate(-277.5 666.71)" gradientUnits="userSpaceOnUse">
   <stop stop-color="#b8cee0" offset="0"/>
   <stop stop-color="#6a7483" offset="1"/>
  </linearGradient>
 </defs>
 <path d="m0.9961 2.4141v12.455c0 1.108 0.8915 2.2421 2 2.5371l19 5.0566c0.3686 0.0981 0.7081 0.295 1.0039 0.54687v-12.879c0-0.5709-0.6346-1.4026-1.2578-1.5703l-19-5.0566c-0.6942-0.18596-1.2787-0.58734-1.7461-1.0898z" fill="url(#a)" style="paint-order:fill markers stroke"/>
 <path d="m0.9961 2.4141v12.455c0 0.1385 0.014 0.27644 0.041 0.41406 0.1593 0.82576 0.7719 1.6062 1.5547 1.9746 0.1305 0.0614 0.2657 0.11156 0.4043 0.14844l19 5.0566c0.1385 0.0369 0.2738 0.087 0.4043 0.14844 0.2155 0.10143 0.4158 0.23634 0.5996 0.39257v-1.1582c-0.2663-0.16023-0.5275-0.29143-0.7461-0.34961l-19-5.0566c-0.6217-0.16546-1.2578-0.99873-1.2578-1.5703v-11.701c-0.3787-0.19841-0.7145-0.44689-1-0.75391z" color="#000000" fill="#fff" fill-opacity=".2" stroke-linecap="round" stroke-width="2" style="-inkscape-stroke:none;paint-order:fill markers stroke"/>
 <path d="m0 0v14.869c0 1.6447 1.1497 3.0773 2.7422 3.5039l19 5.0566c0.6232 0.1677 1.2578 0.99941 1.2578 1.5703v-1.959c-0.2992-0.25825-0.6292-0.47771-1.0039-0.57812l-19-5.0566c-1.108-0.2968-2-1.4291-2-2.5371v-12.455c-0.6048-0.65031-0.9961-1.4863-0.9961-2.4141z" color="#000000" fill-opacity=".5" stroke-width="2"/>
</svg>
