<svg width="15" height="15" version="1.1" viewBox="0 0 15 15" xmlns="http://www.w3.org/2000/svg">
 <path d="m1 1.9126e-7c-0.5713 0-1 0.4288-1 1v13c0 0.5713 0.4287 1.0001 1 1h13c0.5713 1e-4 1-0.4287 1-1v-13c0-0.5712-0.4287-1-1-1h-2.5684zm0 1h9.877c-0.14548 0.056469-0.31748 0.11233-0.48047 0.1543-0.7642 0.1986-1.0078 0.30782-1.0078 0.44922 0 0.1536 0.092141 0.19811 0.68164 0.32031 0.5078 0.1052 0.69141 0.19686 0.69141 0.34766 0 0.1628-0.31718 0.26753-1.4844 0.49023-0.6386 0.1219-1.2124 0.2625-1.2754 0.3125-0.0634 0.0503-0.11523 0.12783-0.11523 0.17383 1e-7 0.116 0.32942 0.25859 0.85742 0.37109 0.54178 0.11533 0.73344 0.20834 0.76562 0.38281h-8.5098zm11.016 0h1.9844v1.8496c-0.12975-0.026981-0.23776-0.05123-0.4043-0.083984-1.1421-0.2247-1.4609-0.33214-1.4609-0.49414 0-0.1508 0.18165-0.24246 0.68945-0.34766 0.5901-0.1222 0.68359-0.16671 0.68359-0.32031 0-0.1404-0.24558-0.24911-0.98828-0.44141-0.19271-0.049904-0.35993-0.10537-0.50391-0.16211zm-10.016 1.002v1h5v-1zm12 1.6777v0.32227h-0.60352c0.01287-0.038564 0.03148-0.076554 0.06445-0.11328 0.036522-0.040639 0.26326-0.12699 0.53906-0.20898zm-13 1.3223h7.9824c0.1114 0.039194 0.26568 0.081013 0.51172 0.13477 0.6641 0.1451 0.88709 0.25288 0.87109 0.42578-0.0084 0.0906-0.09366 0.19162-0.22656 0.26562-0.6942 0.3877-0.66146 0.43301 0.68164 0.94141 0.5308 0.2009 0.58398 0.28902 0.58398 0.95312 0 0.11773-0.0039 0.19882-0.0078 0.2793h-10.396zm12.908 0h0.091796v3h-2.5039c-0.0038-0.08047-0.0059-0.17186-0.0059-0.28711v-0.53711l0.18359-0.16406c0.1003-0.0906 0.44302-0.25398 0.76172-0.36328 0.8987-0.3082 0.95681-0.40677 0.44141-0.73047-0.5683-0.3571-0.47605-0.51113 0.43945-0.73633 0.25199-0.061937 0.44924-0.12236 0.5918-0.18164zm-11.908 1v1h6v-1zm-1 3h9.4648c0.0515 0.03495 0.11666 0.07084 0.19922 0.10742 0.5631 0.2496 0.74023 0.3908 0.74023 0.5918 0 0.1521-0.21166 0.2468-0.75976 0.3418-0.6814 0.1176-0.88199 0.17639-0.95899 0.27539-0.1086 0.1397 0.016138 0.26192 0.39844 0.39062 0.4998 0.1683 0.66326 0.36746 0.47266 0.57226-0.0983 0.1055-0.25701 0.16022-0.94531 0.32422-0.5104 0.1217-0.73828 0.23404-0.73828 0.36523 0 0.1178 0.29837 0.24016 1.0762 0.44336 0.4685 0.1224 0.90094 0.26159 0.96094 0.30859 0.2155 0.1704 0.10018 0.40937-0.26172 0.54297-0.3641 0.1343-0.53125 0.25938-0.53125 0.39648 0 0.11376 0.10477 0.20716 0.38672 0.33789h-9.5039zm11.477 0h1.5234v2.9375c-0.03696-0.12064-0.28663-0.22348-0.83203-0.3457-0.3442-0.0771-0.68862-0.19376-0.76562-0.25976-0.2658-0.228-0.14761-0.42957 0.33789-0.57617 0.8387-0.253 0.65278-0.50964-0.51562-0.71094-0.5564-0.0959-0.73438-0.18308-0.73438-0.35938 0-0.1434 0.24011-0.35133 0.56641-0.49023 0.23144-0.09848 0.35175-0.15159 0.41992-0.19531zm-10.477 1v1h6v-1zm0 2v1h4v-1zm12 0.009766v1.9883h-1.6035c0.05433-0.02661 0.10996-0.05355 0.15625-0.08008 0.3686-0.2114 0.29131-0.40643-0.24609-0.61523-0.4357-0.1693-0.55192-0.39597-0.29102-0.57227 0.0767-0.0519 0.47762-0.177 0.89062-0.2793 0.78381-0.19414 1.048-0.30024 1.0938-0.4414z" color="#000000" fill="#304251" stroke-linecap="round" stroke-linejoin="round" stroke-width="2" style="-inkscape-stroke:none"/>
</svg>
