<svg width="16" height="16" version="1.1" viewBox="0 0 16 16" xmlns="http://www.w3.org/2000/svg"><path d="m5.8339 0.99976c-3.2222 1.9e-4 -5.8343 2.6124-5.834 5.834 1e-3 3.2207 2.6128 5.8318 5.834 5.832 0.9364-5e-3 1.8586-0.23425 2.6875-0.66992l2.4902 2.4902c0.6855 0.68555 1.7889 0.68551 2.4746 0 0.6855-0.68555 0.6855-1.7911 0-2.4766l-2.4902-2.4883c0.033-0.0617 0.062-0.12476 0.092-0.1875h3.9121c0.5713 1e-4 1-0.4287 1-1v-3c0-0.5712-0.4287-1-1-1h-3.8926c-0.9362-1.9709-2.946-3.3338-5.2734-3.334zm0 1c1.7646 1.1e-4 3.2988 0.93266 4.1426 2.334h-5.9766c-0.5713 0-1 0.4288-1 1v3c0 0.5713 0.4287 1.0001 1 1h5.9649l-0.1973 0.37304 3.0117 3.0098c0.3054 0.30529 0.3055 0.75708 0 1.0625-0.3063 0.30629-0.7544 0.30613-1.0605 0l-3.0118-3.0117-0.6504 0.34375c-0.6867 0.36092-1.4505 0.55069-2.2265 0.55469-2.6789-2e-3 -4.8293-2.1531-4.8301-4.832-2.9997e-4 -2.6811 2.1523-4.8338 4.834-4.834zm-1.834 3.334h6.4316c0.1527 0.47196 0.2364 0.97543 0.2364 1.5 0 0.50954-0.087 1.0156-0.25 1.5h-6.418zm7.4727 0h3.5273v3h-3.5371c0.1333-0.48737 0.2051-0.99155 0.2051-1.5 0-0.51894-0.068-1.0211-0.1953-1.5zm-6.4707 1v1h2v-1z" color="#000000" fill="#b8cee0" stroke-linecap="round" stroke-linejoin="round" stroke-width="2" style="-inkscape-stroke:none"/></svg>
