<svg width="16" height="16" version="1.1" viewBox="0 0 16 16" xmlns="http://www.w3.org/2000/svg"><path d="m12.571 5.3333h-0.7619v-1.5238c0-2.1029-1.7067-3.8095-3.8095-3.8095-2.1029 0-3.8095 1.7067-3.8095 3.8095v1.5238h-0.7619c-0.8381 0-1.5238 0.68571-1.5238 1.5238v7.619c0 0.8381 0.68571 1.5238 1.5238 1.5238h9.1429c0.8381 0 1.5238-0.68572 1.5238-1.5238v-7.619c0-0.8381-0.68571-1.5238-1.5238-1.5238zm-6.8571-1.5238c0-1.2648 1.021-2.2857 2.2857-2.2857 1.2648 0 2.2857 1.021 2.2857 2.2857v1.5238h-4.5714zm6.8571 10.667h-9.1429v-7.619h9.1429zm-4.5714-2.2857c0.8381 0 1.5238-0.68571 1.5238-1.5238 0-0.8381-0.68571-1.5238-1.5238-1.5238s-1.5238 0.68571-1.5238 1.5238c0 0.8381 0.68571 1.5238 1.5238 1.5238z" fill-opacity=".5"/></svg>
