<svg width="16" height="16" version="1.1" viewBox="0 0 16 16" xmlns="http://www.w3.org/2000/svg"><path d="m1-1.3374e-7c-0.5713 0-1 0.4288-1 1v14c0 0.5713 0.4287 1.0001 1 1h14c0.5713 1e-4 1-0.4287 1-1v-14c0-0.5712-0.4287-1-1-1zm0 1h11.375c-0.02716 0.10541-0.07949 0.15035-0.20703 0.23828-0.118 0.0813-0.46468 0.21397-0.77148 0.29297-0.7642 0.1986-1.0098 0.30587-1.0098 0.44727 0 0.1536 0.09409 0.19811 0.68359 0.32031 0.5078 0.1052 0.68945 0.19686 0.68945 0.34766 0 0.1628-0.31522 0.26753-1.4824 0.49023-0.6386 0.1219-1.2143 0.2625-1.2773 0.3125-0.0634 0.0503-0.11523 0.12783-0.11523 0.17383 0 0.116 0.33138 0.25859 0.85938 0.37109 0.012549 0.00267 0.019073 0.00517 0.03125 0.00781h-8.7754zm11.512 0h2.4883v2.2246c-0.12975-0.026981-0.23776-0.05123-0.4043-0.083984-1.1421-0.2247-1.4629-0.33214-1.4629-0.49414 0-0.1508 0.18361-0.24246 0.69141-0.34766 0.5901-0.1222 0.68164-0.16671 0.68164-0.32031 0-0.1404-0.24363-0.24911-0.98633-0.44141-0.5947-0.154-0.98186-0.35328-1.0059-0.51758-4.64e-4 -0.00306-0.0014-0.015903-2e-3 -0.019531zm-10.512 1.002v1h5v-1zm-1 3h8.8184c-0.056303 0.067938-0.081483 0.14633-0.060547 0.2168 0.0336 0.1131 0.17973 0.17137 0.73633 0.29297 0.6641 0.1451 0.88709 0.25483 0.87109 0.42773-0.0084 0.0906-0.09562 0.19162-0.22852 0.26562-0.6942 0.3877-0.66146 0.43105 0.68164 0.93945 0.5308 0.2009 0.58594 0.28902 0.58594 0.95312 0 0.6158-0.02462 0.66486-0.38672 0.75586-0.19368 0.04915-0.34594 0.09843-0.45703 0.14844h-10.561zm14 0.33398v3.666h-1.6836c-0.080749-0.027606-0.18396-0.057155-0.32422-0.095703-0.4795-0.1317-0.50195-0.16871-0.50195-0.81641v-0.53711l0.18164-0.16406c0.1003-0.0906 0.44302-0.25398 0.76172-0.36328 0.8987-0.3082 0.95876-0.40677 0.44336-0.73047-0.5683-0.3571-0.47605-0.51113 0.43945-0.73633 0.31175-0.076625 0.53907-0.14968 0.68359-0.22266zm-13 0.66602v1h6v-1zm-1 4h11.395v2e-3c0.0059 0.0236 0.0098 0.04714 0.0098 0.07227 0 0.1521-0.21166 0.2468-0.75976 0.3418-0.6814 0.1176-0.88394 0.17639-0.96094 0.27539-0.1086 0.1397 0.01614 0.26192 0.39844 0.39062 0.4998 0.1683 0.66521 0.36747 0.47461 0.57227-0.0983 0.1055-0.25897 0.16022-0.94727 0.32422-0.5104 0.1217-0.73633 0.23403-0.73633 0.36523 1e-7 0.1178 0.29837 0.24211 1.0762 0.44531 0.4685 0.1224 0.90094 0.25964 0.96094 0.30664 0.2155 0.1704 0.10018 0.40937-0.26172 0.54297-0.3641 0.1343-0.53125 0.25938-0.53125 0.39648 0 0.1447 0.15559 0.25412 0.65039 0.45312 0.34872 0.14029 0.53377 0.29232 0.60547 0.50977h-11.373zm11.502 0h2.498v2.3145c-0.03453-0.12161-0.28328-0.22273-0.83203-0.3457-0.3442-0.0771-0.68862-0.19377-0.76562-0.25977-0.2658-0.228-0.14761-0.43152 0.33789-0.57812 0.8387-0.253 0.65082-0.50964-0.51758-0.71094-0.5564-0.0959-0.73242-0.18308-0.73242-0.35938 0-0.01906 0.0036-0.03951 0.01172-0.06055zm-10.502 1v1h6v-1zm13 1.3809v2.6172h-2.4863c0.10873-0.24159 0.31926-0.41415 0.64062-0.51953 0.0944-0.031 0.27454-0.11455 0.39844-0.18555 0.3686-0.2114 0.28935-0.40644-0.24805-0.61524-0.4357-0.1693-0.54996-0.39596-0.28906-0.57226 0.0767-0.0519 0.47762-0.177 0.89062-0.2793 0.7913-0.196 1.0518-0.30211 1.0938-0.44531zm-13 0.61914v1h4v-1z" color="#000000" fill="#304251" stroke-linecap="round" stroke-linejoin="round" stroke-width="2" style="-inkscape-stroke:none"/></svg>
