<svg width="15" height="15" version="1.1" viewBox="0 0 15 15" xmlns="http://www.w3.org/2000/svg"><path d="m2.9998-3.45e-6 1.969 3.0004-1.969 3.0004h1.3244l1.9338-3.0004-1.9338-3.0004zm4.0005 0v11.193c-0.09189-0.11219-0.244-0.43412-0.34965-0.74228-0.30822-0.89885-0.40857-0.9589-0.73252-0.44342-0.35714 0.56836-0.50918 0.47802-0.73447-0.43756-0.24525-0.99774-0.46104-1.133-0.71884-0.44928-0.13464 0.35706-0.37551 0.48511-0.57624 0.30473-0.05028-0.04522-0.16965-0.37828-0.26566-0.74033-0.18654-0.70606-0.24332-0.82117-0.39263-0.79698-0.1659 0.02657-0.23584 0.23561-0.4649 1.4006-0.22472 1.1422-0.33204 1.4631-0.4942 1.4631-0.15082 0-0.2426-0.18167-0.34769-0.68954-0.1221-0.58964-0.16689-0.68368-0.32036-0.68368-0.14062 0-0.24907 0.24368-0.44146 0.98646-0.15404 0.59477-0.3532 0.98375-0.51765 1.0079-0.05935 0.0087-0.2296 0.03069-0.37702 0.04884l-0.26763 0.03319 0.35748 0.02344c0.33623 0.02276 0.36681 0.0364 0.50592 0.23831 0.08127 0.11802 0.21399 0.46668 0.29299 0.77354 0.1986 0.76422 0.30596 1.0079 0.44732 1.0079 0.15347 0 0.19826-0.09408 0.32036-0.68368 0.10508-0.50788 0.19686-0.68954 0.34769-0.68954 0.163 0 0.26766 0.31526 0.4903 1.4826 0.1221 0.63876 0.26264 1.214 0.31253 1.2775 0.05027 0.0635 0.12773 0.11525 0.17384 0.11525 0.11567 0 0.25852-0.3295 0.37116-0.85754 0.12773-0.59954 0.22555-0.77354 0.43951-0.77354 0.18205 0 0.31242 0.14534 0.41412 0.461 0.06615 0.20518 0.23122 0.33793 0.3692 0.29692 0.11302-0.03364 0.17127-0.1797 0.29299-0.73642 0.14508-0.66417 0.25504-0.88708 0.42779-0.87121 0.09072 0.0084 0.19157 0.09564 0.26566 0.22854 0.38772 0.69429 0.43308 0.66152 0.94153-0.68173 0.0781-0.2064 0.14606-0.32704 0.23051-0.41412v3.3481h1.0001v-3.5122c0.34205 0.01659 0.40282 0.08554 0.47663 0.37896 0.19664 0.7748 0.39702 0.88789 0.6329 0.35552 0.24952-0.56312 0.39078-0.74033 0.59187-0.74033 0.15196 0 0.24695 0.21161 0.34183 0.75986 0.11756 0.68144 0.17445 0.882 0.27348 0.95911 0.1396 0.10864 0.26177-0.01625 0.39068-0.39849 0.16832-0.49951 0.36746-0.6653 0.57234-0.47467 0.10546 0.09827 0.1602 0.25904 0.32425 0.94739 0.12172 0.51049 0.23606 0.73838 0.36723 0.73838 0.11775 0 0.24007-0.30036 0.44342-1.0783 0.12247-0.46852 0.26177-0.89939 0.30864-0.95911 0.17059-0.21549 0.40961-0.10018 0.54304 0.26175 0.13438 0.36416 0.25738 0.53132 0.39458 0.53132 0.14481 0 0.25436-0.15754 0.45318-0.65243 0.18322-0.45546 0.38734-0.63353 0.73056-0.64071 0.18636-0.0038 0.20136-0.0095 0.06641-0.0254-0.39834-0.04663-0.66348-0.28375-0.80674-0.7208-0.03062-0.09443-0.11257-0.27263-0.18363-0.39654-0.21142-0.36868-0.40666-0.29129-0.61532 0.24612-0.16931 0.4358-0.39619 0.54996-0.57234 0.2891-0.05179-0.07671-0.17883-0.47766-0.28127-0.89074-0.19596-0.79144-0.3021-1.0514-0.44537-1.0939-0.15165-0.04509-0.26778 0.19006-0.41216 0.83409-0.07711 0.34424-0.19365 0.68903-0.2598 0.76572-0.22805 0.26576-0.42958 0.14567-0.57625-0.33989-0.25304-0.8388-0.5115-0.65091-0.71298 0.51765-0.09601 0.55644-0.18133 0.73447-0.35748 0.73447-0.14356 0-0.35351-0.2421-0.49225-0.56843-0.20941-0.49158-0.21932-0.50592-0.35162-0.50592-0.13759 0-0.17766 0.0749-0.3145 0.57234-0.10716 0.39032-0.1678 0.47526-0.52937 0.4942v-11.388h-1.0001zm2.0003 0 1.969 3.0004-1.969 3.0004h1.3244l1.9338-3.0004-1.9338-3.0004z" fill="#304251" stroke-width="1.0001"/></svg>
