<svg version="1.1" viewBox="0 0 3.96875 3.968827" xmlns="http://www.w3.org/2000/svg"><path transform="scale(.2645833)" d="m3 .001953125 1.96875 3-1.96875 3h1.324219l1.933594-3-1.933594-3h-1.324219zm4 0v11.19141c-.0918925-.112171-.243979-.434068-.3496094-.742187-.3081827-.8987302-.4085163-.9587775-.7324218-.44336-.3570898.56829-.5091152.477963-.734375-.4374995-.2452158-.9976101-.4609863-1.132818-.71875-.4492187-.1346268.3570141-.375479.4850465-.5761719.3046874-.0502677-.0452107-.169625-.3782312-.265625-.7402343-.1865197-.7059629-.2432868-.821064-.3925781-.796875-.1658835.0265512-.2358044.235578-.4648438 1.400391-.2246929 1.142086-.3319989 1.46289-.4941406 1.46289-.1508032 0-.2425854-.181643-.3476563-.689453-.1220787-.5895647-.1668637-.6835938-.3203125-.6835938-.1405984 1e-7-.2490283.2436472-.4414062.9863278-.1540158.59469-.3531687.983624-.5175782 1.007813-.05933858.008693-.2295516.030686-.3769531.048828l-.2675781.033203.3574219.023438c.336189.022752.3667728.036379.5058594.238281.08125984.118008.2139766.466615.2929688.773437.1985764.764115.3059113 1.007813.4472656 1.007813.1534488 0 .1982338-.094056.3203125-.683594.1050709-.507813.1968531-.689453.3476563-.689453.1629732 0 .2676202.315224.4902344 1.482422.1220787.638672.2626102 1.213848.3125 1.277344.0502677.063496.1277178.115234.1738281.115234.1156535 0 .2584638-.329463.3710937-.857422.1277103-.599459.2255319-.773437.4394532-.773437.182022 0 .3123932.145309.4140624.460937.0661418.205153.2311879.337883.3691407.296875.1130078-.033607.1712679-.179691.2929687-.736328.1450583-.664086.25501-.886968.4277344-.871094.0907087.008391.1915463.095628.265625.228516.3876661.694197.433022.661429.9414062-.681641.0781046-.206377.1460327-.326993.2304688-.414062v3.347656h1v-3.511719c.3420237.016577.4027676.085534.4765625.378907.196611.774697.39697.887769.6328125.355468.2494866-.563047.390726-.740234.5917969-.740234.151937 0 .2469307.211583.3417971.759766.117543.681354.174414.881882.273437.958984.139578.108639.261743-.016116.390625-.398438.168303-.499442.367415-.665211.572266-.474609.105449.09826.160187.259006.324219.947266.1217.510421.236038.738281.367187.738281.117732 0 .240021-.300306.443359-1.078125.122457-.468461.261728-.899268.308594-.958985.17057-.215463.409552-.100171.542969.261719.134362.364116.257334.53125.394531.53125.144794 0 .254322-.157524.453125-.652343.183194-.455396.387288-.633444.730469-.640626.186331-.003779.201335-.009516.066406-.02539-.398286-.046632-.663396-.283714-.80664-.720703-.030615-.094417-.112539-.272592-.183594-.396485-.211389-.3686321-.406605-.291256-.615234.246094-.169286.435742-.39614.549888-.572266.289063-.05178-.076702-.178825-.477602-.28125-.8906254-.195931-.7913348-.302069-1.05123-.445313-1.09375-.151634-.0450897-.267731.1900323-.412109.8339844-.077102.344198-.193624.688938-.259766.765625-.228019.265723-.429526.145648-.576172-.339844-.253001-.8386883-.511441-.6508286-.71289.517578-.0960001.556362-.181296.734375-.357422.734375-.1435465 0-.3534788-.242072-.4921875-.568359-.2093858-.491516-.219279-.505859-.3515625-.505859-.1375748 0-.1776342.074895-.3144531.572265-.1071594.390271-.1677747.475203-.5292969.494141v-11.38672h-1zm2 0 1.96875 3-1.96875 3h1.324219l1.933593-3-1.933593-3h-1.324219z" fill="#304251"/></svg>
