<svg width="15" height="15" version="1.1" viewBox="0 0 15 15" xmlns="http://www.w3.org/2000/svg"><g transform="matrix(3.7794 0 0 3.7794 -389.63 -206.78)"><path transform="matrix(.26458 0 0 .26458 103.09 54.712)" d="m0 0.0019531 1.9688 3-1.9688 3h1.3242l1.9336-3-1.9336-3zm11.742 0 1.9688 3-1.9688 3h1.3242l1.9336-3-1.9336-3zm-8.5117 7.8867c-0.16592 0.026547-0.2358 0.23558-0.46484 1.4004-0.22466 1.1421-0.332 1.4629-0.49414 1.4629-0.1508 0-0.24259-0.18164-0.34766-0.68945-0.12208-0.58956-0.16686-0.68359-0.32031-0.68359-0.1406 0-0.24903 0.24365-0.44141 0.98633-0.15405 0.59469-0.35317 0.98362-0.51758 1.0078-0.059339 0.0087-0.22955 0.03069-0.37695 0.04883l-0.26758 0.0332 0.35742 0.02344c0.33615 0.02275 0.36482 0.03638 0.50391 0.23828 0.08126 0.11801 0.21398 0.46662 0.29297 0.77344 0.19861 0.76411 0.30786 1.0078 0.44922 1.0078 0.15345 0 0.19823-0.09405 0.32031-0.68359 0.10545-0.50781 0.19685-0.68945 0.34766-0.68945 0.1626 0 0.26762 0.31522 0.49023 1.4824 0.12208 0.63867 0.26261 1.2138 0.3125 1.2773 0.050268 0.063496 0.12772 0.11523 0.17383 0.11523 0.11603 0 0.25846-0.32946 0.37109-0.85742 0.12771-0.59942 0.22553-0.77344 0.43945-0.77344 0.18202 0 0.31239 0.14531 0.41406 0.46094 0.066142 0.20519 0.23119 0.33788 0.36914 0.29688 0.11301-0.03361 0.17127-0.17969 0.29297-0.73633 0.1451-0.66408 0.25463-0.88697 0.42773-0.87109 0.090709 0.0084 0.19155 0.09563 0.26562 0.22852 0.3877 0.6942 0.43302 0.66143 0.94141-0.68164 0.20092-0.5309 0.28902-0.58398 0.95312-0.58398 0.61591 0 0.66282 0.02265 0.75391 0.38477 0.19657 0.7747 0.39697 0.88777 0.63281 0.35547 0.24952-0.56305 0.39073-0.74023 0.5918-0.74023 0.15194 0 0.24693 0.21159 0.3418 0.75977 0.11754 0.68136 0.17441 0.88188 0.27344 0.95898 0.13954 0.10864 0.2637-0.01612 0.39258-0.39844 0.1683-0.49944 0.36742-0.66521 0.57227-0.47461 0.10545 0.09826 0.16019 0.25901 0.32422 0.94727 0.1217 0.51042 0.23408 0.73828 0.36523 0.73828 0.11777 0 0.24002-0.30031 0.44336-1.0781 0.12246-0.46846 0.26173-0.89927 0.30859-0.95898 0.17061-0.21546 0.40955-0.10017 0.54297 0.26172 0.13436 0.36412 0.25929 0.53125 0.39648 0.53125 0.14476 0 0.25237-0.15752 0.45117-0.65234 0.18319-0.45539 0.38729-0.63382 0.73047-0.64063 0.18633-0.0042 0.20329-0.0095 0.06836-0.02539-0.39832-0.04663-0.6634-0.28371-0.80664-0.7207-0.03061-0.09442-0.11449-0.27255-0.18555-0.39648-0.21143-0.36863-0.4066-0.29126-0.61523 0.24609-0.16932 0.43574-0.39614 0.54989-0.57227 0.28906-0.05178-0.0767-0.17687-0.47761-0.2793-0.89063-0.19597-0.79133-0.30402-1.0512-0.44727-1.0938-0.1516-0.04509-0.26773 0.19004-0.41211 0.83398-0.0771 0.3442-0.19362 0.68894-0.25977 0.76562-0.22802 0.26572-0.42953 0.14564-0.57617-0.33984-0.253-0.83869-0.51144-0.65083-0.71289 0.51758-0.096 0.55636-0.1813 0.73438-0.35742 0.73438-0.14351 0-0.35153-0.24207-0.49023-0.56836-0.20939-0.49152-0.21928-0.50586-0.35156-0.50586-0.13757 0-0.17959 0.07489-0.31641 0.57226-0.13172 0.47957-0.16676 0.50195-0.81445 0.50195h-0.53711l-0.16406-0.18359c-0.090331-0.10031-0.25405-0.4431-0.36328-0.76172-0.30822-0.89873-0.40694-0.95878-0.73047-0.44336-0.35713 0.56829-0.51107 0.47796-0.73633-0.4375-0.24518-0.99761-0.46099-1.1328-0.71875-0.44922-0.13459 0.35701-0.37548 0.48505-0.57617 0.30469-0.050268-0.045211-0.16962-0.37823-0.26562-0.74023-0.18648-0.70596-0.24329-0.82069-0.39258-0.79687z" fill="#304251"/></g></svg>
