<svg version="1.1" viewBox="0 0 3.96883 3.968818" xmlns="http://www.w3.org/2000/svg"><g transform="translate(-103.0929 -54.71205)"><path transform="matrix(.2645833 0 0 .2645833 103.0929 54.71205)" d="m0 .001953125 1.96875 3-1.96875 3h1.324219l1.933594-3-1.933594-3h-1.324219zm11.74219 0 1.96875 3-1.96875 3h1.324218l1.933594-3-1.933594-3h-1.324218zm-8.511719 7.886719c-.1659213.0265474-.2358044.2355818-.4648438 1.400391-.2246551 1.142052-.3319989 1.46289-.4941406 1.46289-.1508032 0-.2425854-.181643-.3476563-.689453-.1220787-.5895647-.1668637-.6835938-.3203125-.6835938-.1405984 0-.2490283.2436472-.4414062.9863278-.1540536.59469-.3531687.983624-.5175782 1.007813-.05933858.008693-.2295516.030686-.3769531.048828l-.2675781.033203.3574219.023438c.3361512.022752.3648196.036379.5039062.238281.08125985.118012.2139766.466615.2929688.773437.1986141.764111.3078644 1.007813.4492187 1.007813.1534488 0 .1982338-.094052.3203125-.683594.1054488-.507813.1968531-.689453.3476563-.689453.1625953 0 .2676202.315221.4902344 1.482422.1220787.638668.2626102 1.213848.3125 1.277344.0502677.063496.1277178.115234.1738281.115234.1160315 0 .2584638-.32946.3710937-.857422.1277103-.599422.2255319-.773437.4394532-.773437.182022 0 .3123932.145309.4140624.460937.0661418.205191.2311879.337883.3691407.296875.1130078-.033611.1712679-.179687.2929687-.736328.1450961-.664082.254632-.886968.4277344-.871094.0907087.008391.1915463.095628.265625.228516.3877039.694201.433022.661429.9414062-.681641.2009197-.530895.2890243-.583984.953125-.583984.6159119 0 .6628197.022649.7539063.384766.1965732.774697.39697.887766.6328125.355468.2495244-.563047.390726-.740234.5917969-.740234.151937 0 .2469307.211587.3417971.759766.117543.681358.174414.881882.273437.958984.13954.108639.263696-.01612.392578-.398438.168303-.499442.367416-.665211.572266-.474609.105449.09826.160187.259006.324219.947266.121701.510421.234085.738281.365234.738281.11777 0 .240021-.300306.443359-1.078125.122457-.468461.261728-.899268.308594-.958985.170608-.215463.409552-.100171.542969.261719.134362.364116.259288.53125.396484.53125.144756 0 .252369-.15752.451172-.652343.183194-.455392.387288-.633822.730469-.640626.186331-.004157.203289-.009516.068359-.02539-.398324-.046632-.663396-.283714-.80664-.720703-.030614-.094417-.114492-.272554-.185547-.396485-.211427-.3686321-.406605-.291256-.615234.246094-.169323.435742-.39614.549888-.572266.289063-.05178-.076702-.176872-.477606-.279297-.8906254-.195969-.7913348-.304022-1.05123-.447266-1.09375-.151596-.0450897-.267731.1900361-.412109.8339844-.077102.344202-.193624.688938-.259766.765625-.228019.265723-.429526.145644-.576172-.339844-.253001-.838692-.511441-.6508323-.71289.517578-.0960001.556362-.181296.734375-.357422.734375-.1435087 0-.3515257-.242072-.4902344-.568359-.2093858-.49152-.219279-.505859-.3515625-.505859-.1375748 0-.1795873.074895-.3164062.572265-.1317166.479569-.1667555.501953-.8144531.501953h-.5371094l-.1640625-.183593c-.0903307-.100309-.2540529-.443105-.3632813-.761719-.3082204-.8987302-.4069412-.9587775-.7304687-.44336-.3571276.56829-.5110683.477959-.7363281-.4374995-.245178-.9976101-.4609863-1.132818-.71875-.4492187-.134589.3570141-.375479.4850465-.5761719.3046874-.0502677-.0452107-.169625-.3782312-.265625-.7402343-.1864819-.7059629-.2432868-.820686-.3925781-.796875z" fill="#304251"/></g></svg>
