<svg width="15" height="15" version="1.1" viewBox="0 0 15 15" xmlns="http://www.w3.org/2000/svg"><path d="m0 0.0019535v14.998h1v-2.9883c0.056766 0.14588 0.11213 0.31471 0.1543 0.47852 0.19861 0.76426 0.30786 1.0078 0.44922 1.0078 0.15345 0 0.19823-0.09406 0.32031-0.68359 0.10545-0.50793 0.19685-0.68945 0.34766-0.68945 0.16297 0 0.26762 0.31523 0.49023 1.4824 0.12208 0.63866 0.26261 1.2138 0.3125 1.2773 0.050268 0.0635 0.12772 0.11523 0.17383 0.11523 0.11603 0 0.25846-0.32946 0.37109-0.85742 0.12771-0.59932 0.22748-0.77148 0.44141-0.77148 0.18198 0 0.31044 0.1434 0.41211 0.45898 0.066142 0.20523 0.23314 0.34003 0.37109 0.29883 0.11301-0.0336 0.17127-0.17968 0.29297-0.73633 0.14506-0.66399 0.25306-0.88621 0.42578-0.87109 0.090709 0.0087 0.19155 0.09352 0.26563 0.22656 0.3877 0.69422 0.43302 0.66145 0.94141-0.68164 0.20092-0.53072 0.28902-0.58398 0.95313-0.58398 0.61591 0 0.66477 0.02464 0.75586 0.38672 0.19661 0.7748 0.39502 0.88582 0.63086 0.35351 0.24949-0.56296 0.39073-0.74023 0.5918-0.74023 0.15194 0 0.24693 0.21158 0.3418 0.75977 0.11754 0.68145 0.17637 0.88188 0.27539 0.95898 0.13954 0.10866 0.26174-0.0161 0.39062-0.39844 0.1683-0.50018 0.36742-0.66314 0.57227-0.47266 0.10545 0.09823 0.16019 0.25898 0.32422 0.94727 0.1217 0.51061 0.23408 0.73633 0.36524 0.73633 0.11773 0 0.24002-0.29834 0.44336-1.0762 0.12246-0.46844 0.26173-0.90122 0.30859-0.96094 0.17057-0.21543 0.40917-0.10036 0.54297 0.26172 0.13436 0.36412 0.25929 0.53125 0.39648 0.53125 0.14479 0 0.25394-0.15753 0.45312-0.65234 0.18319-0.45524 0.38534-0.63307 0.72852-0.64063 0.18633-0.0038 0.20329-0.01028 0.06836-0.0254-0.39832-0.04664-0.6634-0.28371-0.80664-0.7207-0.03099-0.09456-0.11449-0.27252-0.18555-0.39649-0.21139-0.36854-0.4066-0.29124-0.61523 0.24609-0.16932 0.4354-0.39576 0.5518-0.57227 0.29102-0.05178-0.07672-0.17687-0.4776-0.2793-0.89062-0.19593-0.79151-0.30207-1.0534-0.44531-1.0957-0.15163-0.04509-0.26773 0.19006-0.41211 0.83398-0.0771 0.3442-0.19558 0.6889-0.26172 0.76562-0.22806 0.26574-0.42953 0.14759-0.57617-0.33789-0.25296-0.83871-0.50949-0.65282-0.71094 0.51562-0.096 0.55638-0.18325 0.73438-0.35938 0.73438-0.14355 0-0.35153-0.24218-0.49023-0.56836-0.20939-0.49073-0.21928-0.50586-0.35156-0.50586-0.13757 0-0.17763 0.07492-0.31445 0.57226-0.13168 0.47883-0.16871 0.50195-0.81641 0.50195h-0.53711l-0.16406-0.18358c-0.090709-0.10031-0.25405-0.4431-0.36328-0.76172-0.30818-0.89873-0.40694-0.95686-0.73047-0.44141-0.35709 0.56829-0.51107 0.47602-0.73633-0.43945-0.24518-0.99761-0.46099-1.1328-0.71875-0.44922-0.13459 0.35679-0.37548 0.48497-0.57617 0.30469-0.050268-0.0452-0.16963-0.37816-0.26563-0.74023-0.18652-0.70602-0.24329-0.81955-0.39258-0.79688-0.16592 0.02653-0.2358 0.23753-0.46484 1.4023-0.22466 1.142-0.332 1.4609-0.49414 1.4609-0.15118 0-0.24259-0.18164-0.34766-0.68945-0.12208-0.58968-0.16686-0.68359-0.32031-0.68359-0.1406 0-0.24903 0.24365-0.44141 0.98633-0.048762 0.18828-0.10678 0.31306-0.16211 0.45508v-10.818zm2 0 1.9687 3-1.9687 3h1.3242l1.9336-3-1.9336-3z" fill="#304251" stroke-width="3.7795"/></svg>
