<svg width="24" height="20" version="1.1" viewBox="0 0 24 20" xmlns="http://www.w3.org/2000/svg"><path d="m8 5.5c-1.1045 0-2 0.89547-2 2 0 1.1045 0.89547 2 2 2h12c1.1045 0 2-0.89547 2-2 0-1.1045-0.89547-2-2-2zm-2 5c-1.1045 0-2 0.89547-2 2s0.89547 2 2 2h7c1.1045 0 2-0.89547 2-2s-0.89547-2-2-2zm12 0c-1.1045 0-2 0.89547-2 2s0.89547 2 2 2h4c1.1045 0 2-0.89547 2-2s-0.89547-2-2-2z" fill="#fff" fill-opacity=".4" style="isolation:auto;mix-blend-mode:normal;text-decoration-color:#000000;text-decoration-line:none;text-decoration-style:solid;text-indent:0;text-transform:none;white-space:normal"/></svg>
