<svg width="24" height="20" version="1.1" viewBox="0 0 24 20" xmlns="http://www.w3.org/2000/svg"><path d="m11 3c-3.866 0-7 3.134-7 7 0 3.866 3.134 7 7 7 2.5903 0 4.85-1.4087 6.0605-3.5h-2.4922c-0.90737 0.92495-2.1703 1.5-3.5684 1.5-2.7614 0-5-2.2386-5-5 0-2.7614 2.2386-5 5-5 1.3981 0 2.661 0.57505 3.5684 1.5h2.4922c-1.2106-2.0913-3.4703-3.5-6.0605-3.5zm-1 2.7891v3.4219l-1.9629 1.1348 1 1.7324 2.9629-1.7109v-4.5781h-2zm6.4453 1.7109c-0.17965 0-0.36101 0.0087938-0.54687 0.027344-0.18584 0.01239-0.36916 0.035436-0.54883 0.066406-0.17345 0.02478-0.34089 0.054627-0.50195 0.091797-0.15487 0.03097-0.2905 0.06277-0.4082 0.09375v4.7207h1.3828v-3.7734c0.08673-0.01239 0.17661-0.021144 0.26953-0.027344 0.09292-0.01239 0.1828-0.019531 0.26953-0.019531 0.27876 0 0.47444 0.093461 0.58594 0.2793 0.1177 0.18584 0.17773 0.50124 0.17773 0.94727v2.5938h1.3828v-2.668c0-0.17965-0.005178-0.34709-0.017578-0.50195-0.01239-0.16106-0.040624-0.3126-0.083984-0.45508 0.08673-0.05575 0.19609-0.1015 0.32617-0.13867 0.13628-0.03717 0.24012-0.056641 0.31445-0.056641 0.27876 0 0.47444 0.09346 0.58594 0.2793 0.1177 0.18584 0.17774 0.50124 0.17774 0.94727v2.5938h1.3828v-2.7598c0-0.33451-0.026281-0.63763-0.082031-0.91016-0.05575-0.27257-0.15797-0.5088-0.30664-0.70703-0.14867-0.19823-0.3515-0.34976-0.60547-0.45508-0.24779-0.11151-0.56678-0.16797-0.95703-0.16797-0.21682 0-0.45465 0.040566-0.71484 0.12109-0.25398 0.08053-0.47948 0.1915-0.67774 0.33398-0.14248-0.12389-0.32579-0.22773-0.54883-0.31445-0.21682-0.09292-0.50238-0.14062-0.85547-0.14062z" fill="#fff" fill-opacity=".4"/></svg>
