<svg width="12" height="12" version="1.1" viewBox="0 0 12 12" xmlns="http://www.w3.org/2000/svg">
 <path d="m6.9993 0a5.0003 4.9995 0 0 0-5 5 5.0003 4.9995 0 0 0 0.5762 2.3027l-2.1348 2.1328c-0.5876 0.58749-0.5876 1.5355 0 2.123 0.5877 0.58754 1.5336 0.58758 2.1211 0l2.1347-2.1348a5.0003 4.9995 0 0 0 2.3028 0.57422 5.0003 4.9995 0 0 0 5-4.998 5.0003 4.9995 0 0 0-5-5zm-0.5 2h1v2.5h2.5v1h-2.5v2.5h-1v-2.5h-2.5v-1h2.5z" color="#000000" color-rendering="auto" fill="#b8cee0" image-rendering="auto" shape-rendering="auto" solid-color="#000000" style="isolation:auto;mix-blend-mode:normal;text-decoration-color:#000000;text-decoration-line:none;text-decoration-style:solid;text-indent:0;text-transform:none;white-space:normal"/>
 <path d="m6.9998 0a5.0003 4.9995 0 0 0-5 5 5.0003 4.9995 0 0 0 0.041 0.47461 5.0003 4.9995 0 0 1 4.959-4.4746 5.0003 4.9995 0 0 1 4.9668 4.4258 5.0003 4.9995 0 0 0 0.033-0.42579 5.0003 4.9995 0 0 0-5-5zm-3 5.5v1h2.5v-1zm3.5 0v1h2.5v-1zm-5.2246 2.1016-1.834 1.834c-0.4236 0.42358-0.5407 1.0343-0.3535 1.5625 0.072-0.20503 0.1891-0.39812 0.3535-0.5625l2.1348-2.1328a5.0003 4.9995 0 0 1-0.3008-0.70117zm4.2246 0.39843v1h1v-1z" color="#000000" color-rendering="auto" image-rendering="auto" opacity=".2" shape-rendering="auto" solid-color="#000000" style="isolation:auto;mix-blend-mode:normal;text-decoration-color:#000000;text-decoration-line:none;text-decoration-style:solid;text-indent:0;text-transform:none;white-space:normal"/>
</svg>
