<svg width="12" height="12" version="1.1" viewBox="0 0 12 12" xmlns="http://www.w3.org/2000/svg">
 <path d="m6.9993 0c-2.7617 1.6e-4 -5.0003 2.2388-5 5 0 0.8027 0.202 1.5925 0.5762 2.3027l-2.1348 2.1328c-0.5876 0.58749-0.5876 1.5355 0 2.123 0.5877 0.58754 1.5336 0.58758 2.1211 0l2.1347-2.1348c0.7104 0.37341 1.5002 0.57036 2.3028 0.57422 2.7609-1.6e-4 4.9992-2.2376 5-4.998 3e-4 -2.7612-2.2383-4.9998-5-5zm3 4.5v1h-6v-1z" color="#000000" color-rendering="auto" fill="#b8cee0" image-rendering="auto" shape-rendering="auto" solid-color="#000000" style="isolation:auto;mix-blend-mode:normal;text-decoration-color:#000000;text-decoration-line:none;text-decoration-style:solid;text-indent:0;text-transform:none;white-space:normal"/>
 <path d="m6.9998 0c-2.7617 1.6e-4 -5.0003 2.2388-5 5 0 0.16104 0.01 0.32101 0.025 0.48047 0.2594-2.5174 2.3882-4.4803 4.9746-4.4805 2.5891 1.5e-4 4.7188 1.9672 4.9746 4.4883 0.016-0.16049 0.025-0.32372 0.025-0.48829 3e-4 -2.7612-2.2383-4.9998-5-5zm-3 5.5v1h6v-1zm-1.7246 2.1035-1.834 1.832c-0.4236 0.42358-0.5407 1.0343-0.3535 1.5625 0.072-0.20503 0.1891-0.39812 0.3535-0.5625l2.1348-2.1328c-0.1188-0.22552-0.2176-0.45978-0.3008-0.69922z" color="#000000" color-rendering="auto" image-rendering="auto" opacity=".2" shape-rendering="auto" solid-color="#000000" style="isolation:auto;mix-blend-mode:normal;text-decoration-color:#000000;text-decoration-line:none;text-decoration-style:solid;text-indent:0;text-transform:none;white-space:normal"/>
</svg>
